<svg xmlns="http://www.w3.org/2000/svg" viewBox="0 0 500 500"><g id="freepik--Water--inject-77"><g id="freepik--water--inject-77"><path d="M230,135.91c-93.23-5-169.52,38.14-205,110.62S48,397.73,121.41,427c84.35,33.65,195.34,36.24,279.69-7.77s100.85-128,62.15-173.09c-35.52-41.41-71-34-106.55-59.87S287.68,139,230,135.91Z" style="fill:#BA68C8"></path><path d="M230,135.91c-93.23-5-169.52,38.14-205,110.62S48,397.73,121.41,427c84.35,33.65,195.34,36.24,279.69-7.77s100.85-128,62.15-173.09c-35.52-41.41-71-34-106.55-59.87S287.68,139,230,135.91Z" style="fill:#fff;opacity:0.65"></path><g style="opacity:0.25"><path d="M433.9,387.44a94.19,94.19,0,0,0-14,2.81c-2.88.81-6,1.88-7.89,3.56-2.79,2.49-1.82,5.23,0,7.18,2.27,2.51,5.57,4.5,8.48,6.68q4.07-2.78,7.85-5.68a33.76,33.76,0,0,0-3-4.14c-.36-.35-.72-.72-.59-1.18.25-.79,2.06-1.73,4.12-2.41a56.59,56.59,0,0,1,6.64-1.56c1.66-.32,3.32-.61,5-.92q3-2.77,5.75-5.63C442,386.71,438,386.94,433.9,387.44Z" style="fill:#fff"></path><path d="M467.05,356.47a43.29,43.29,0,0,1-20.38-3.9c-3.52-1.59-6.65-3.49-8.62-5.86-4.4-5.26-2.44-12.78,4.87-18.64,6.19-5,15.49-8.59,21.71-13.57,10.85-8.7,9.79-19.28,16.8-28.87l.18-.23q-.72-3.91-1.75-7.73c-1.3.88-2.81,1.67-4.11,2.56-7.93,5.27-7.47,12.2-9.21,18.48-2.24,8.07-9.76,16.76-22.15,22s-29.71,5.86-36.74,0a10.18,10.18,0,0,1-3.66-8.7c.27-5.3,3.73-11,9.65-15.85,3.75-3.08,8.52-5.93,11-9.3,3.94-5.39.89-10.87-5.06-14.17s-14.32-4.87-22.48-6.4c-3.35-.63-7.19-1.68-6.89-3.93.22-1.87,3.53-3.63,6.76-4.4s6.57-.86,9.86-1.31c6.91-.95,13.81-3.64,18.44-7.2l.66-.84c-.93-2.87-1.3-6,.73-9.1s7-6.12,12.33-6.59c6.13-.54,10.3,2.27,12,5.36,1.86,3.3,1.84,7.16,0,11-1.41,2.88-3.83,6.07-1.94,8.41s7.65,2.65,12.68,2.25c3.57-.28,7.28-.75,10.66-.68q-1.83-3.29-4-6.41a19.48,19.48,0,0,1-5.09-.11c-3.11-.59-4.69-2.47-4.89-4.48s.65-3.86,1.54-5.82a114,114,0,0,0-20-17.33,7.52,7.52,0,0,1-3.15,3.56c-3.58,2.27-8.92,3.31-13.54,3.29a58.17,58.17,0,0,1-12.77-1.81L384,224.3c-6.39-1.41-13.44-3.37-13.84-7.59-.4-4,5.62-8.59,4.36-12.41-.92-2.89-5.7-4.36-10.5-5.07s-10.17-1-14.11-2.49c-5.95-2.32-7.53-7.37-5-12.12a18.52,18.52,0,0,1,3.39-4.42c-2.3-1.63-4.59-3.23-6.89-4.8-4.07,3.49-6.67,7.44-7.24,11.24-.86,5.78,3,11.09,10.3,14,4.46,1.81,10.83,1.93,15.43,3.62,4.88,1.76,2.25,5,1.53,7.9a2.84,2.84,0,0,1-1.21,1.92c-1.71,1.14-4.52.85-6.37.28-14.05-4.38-17.42-16.83-34.07-18.31-5.67-.5-12.16.41-17.4-.61-6.22-1.22-9.28-4.87-12.64-8.05a19.7,19.7,0,0,0-15.37-5.87c-8.54.5-16,5.73-24.52,7.48a34.73,34.73,0,0,1-23.71-4c-7.34-4.11-12.73-9.55-13.74-16-.64-4,.57-8.54,4.79-12.52,6.62-6.26,20.71-10.05,30.83-8.29,10.36,1.8,15.17,8.24,25,10.64,6.31,1.58,14.52,1.25,22-.86a61.07,61.07,0,0,0,10.05-3.95c-2.66-1.24-5.36-2.44-8.11-3.58-.26.09-.51.18-.77.25a34.75,34.75,0,0,1-13.73.87c-7.95-1-14.27-3.69-21-5.89s-14.67-4-23.37-2.89c-5.67.72-11.51,2.62-16.92,2.43a18.82,18.82,0,0,1-12.91-5.74c-1.3-1.25-2.55-2.55-4-3.75a243.43,243.43,0,0,0-36.92,4.39c-1.67.65-3.91,1.15-5.89,1.73-6.84,2-10.48,4.94-12.1,7.65s-1.69,5.4-3.48,8.13c-1.55,2.37-5.44,5.14-12.25,6.2a40.31,40.31,0,0,1-12.54-.19c-3.56-.6-6.4-1.52-9.78-2.19-1-.2-2-.37-3.09-.52q-4.68,2.47-9.18,5.18a63.27,63.27,0,0,1,12.45,2c8.34,2.23,16.81,5.85,27,3.61,9.48-2.07,15.37-8.22,19.44-13.66s8.69-11.58,17.68-14.66a34.27,34.27,0,0,1,17.79-1c4.81,1.09,8.53,2.91,10.6,5,1.75,1.77,2.32,3.75,1.37,5.66-1,2.11-3,4.14-4.4,6.23-2.42,3.61-3,7.38-1.83,10.71,1.35,3.57,4.72,7.1,1.71,10.95s-11.63,6.16-15.21,10.05c-3.75,4.07-.72,8.45-3.71,12.64s-12.61,7.14-18.78,5.64-7.56-6-12.67-8.28c-4.38-1.95-11.43-1.95-17.4,0-2,.65-3.78,1.46-5.81,2-7.24,1.75-13-1.37-17.52-4-4.75-2.79-10.52-5.39-18.09-5.24-2.95,0-6,.52-8.92.39a26,26,0,0,1-9.43-2.53,47.72,47.72,0,0,1-5.12-2.5q-4.05,3.68-7.88,7.6c.94.65,1.52,1.37,1.42,2.19-.18,1.69-3.12,3.42-6,5a32.22,32.22,0,0,1-3.86,1.95,192,192,0,0,0-13.35,17.51c.23.47.45.94.66,1.4,2.35,5.09,5.68,10.62,14.36,12,6.57,1.07,14.68-.54,21.65.07,8.59.75,11.68,4.46,12.85,7.29,1.61,3.92-2,8.32-4,12.5-1.49,3.18-1.06,6.17.1,9.11,1.48,3.75,7.3,9.49.58,11.87-4.23,1.49-5.67-3.09-8.21-4.86-4.48-3.11-12.71-3.89-20.66-2.69a66.5,66.5,0,0,0-21.94,7.71c-3.24,1.8-6.27,3.78-10,5.13a27.36,27.36,0,0,1-9.2,1.59c-.15,2.06-.23,4.12-.26,6.17a16.83,16.83,0,0,1,4.64.55c4.43,1.33,4.85,4.9,5.36,8,1.49,8.83,7.26,16.83,16.52,22.94a29.76,29.76,0,0,0,9.2,4.25c6.34,1.64,14.79,1.38,19.54,4.16,6.47,3.79,3,11-.74,17.12a10.2,10.2,0,0,1-3.53,3.79c-3.88,2.34-9.81,1.9-13.72.64a23.56,23.56,0,0,1-7.77-4.07c-2.2-1.82-3.72-4-6.24-5.66-3-1.94-7.49-3-12.42-3.12q1.88,4.11,4.05,8.14c16,1,10.94,10.76,29.15,11.13,4.24.08,8.82-.12,12.6.33,5.56.65,8.19,2.56,13.49,3.33,6.33.91,14.58.34,22.12-.27,8.26-.67,17.06-1.4,23.87-.49,3.73.51,7.84,1.73,9,3.12,2.83,3.56,3.69,7.7,1.56,11.77a11.6,11.6,0,0,1-2.79,3.81c-4.6,3.86-13.93,4.2-19.91,2.62s-10.54-4.5-17.21-5.3c-6.24-.75-13.62.5-20.09,2.69a89.55,89.55,0,0,0-17.47,8.46l-1.33.79q4,3.73,8.26,7.25a8.84,8.84,0,0,1,3.24-4.12c3.43-2.54,8.88-4,13.86-4.25a69.74,69.74,0,0,1,14.1.9l19,2.55c6.3.83,14.44,1.28,19.56-2.1,4.93-3.26,4.56-8.79,11.07-10.6a15.78,15.78,0,0,1,8.79.47c14.3,4.35,20.19,14.1,30.55,21.11a28,28,0,0,0,14.07,5.05c3.59.24,7.53-.17,11.17,0s7.25,1.2,7.76,3.28c.72,3.06-5,6-9.1,8.8-7.81,5.29-10.8,12.05-17.5,17.76a50.43,50.43,0,0,1-16.51,9q6.33,1.29,12.75,2.39a55.66,55.66,0,0,0,6.34-4.86c3.16-2.84,6.83-6.34,12.09-6.8,5.42-.48,8,2.66,11,4.82,6,4.3,17.92,5.25,28.44,2.31,4.61-1.3,9-3.27,13.74-3.88a22.58,22.58,0,0,1,12.48,1.84c2.65,1.27,3.55,2.83,5.87,4.14a35.45,35.45,0,0,1,6.35,4.39,22.27,22.27,0,0,1,1.68,1.69q6.23-.6,12.41-1.42a47,47,0,0,1-12.28-6.92c-4.58-3.43-8.86-7.08-15-9.57-5.18-2.11-12.78-3.19-19.35-.69-3.07,1.15-5.39,2.9-8.32,4.18-9,4-21,2-24.89-2.82s-1.47-11.35,2.89-17.2A63.66,63.66,0,0,1,240,403.3c5.15-3.77,11.4-7.44,13.77-11.79,3-5.39-.7-10.31-.06-15.64a4.87,4.87,0,0,1,3-4.05,15.76,15.76,0,0,1,4.64-1.06l19.7-2.37c3.78-.47,7.8-.92,11-.12,3,.75,4.59,2.53,6.22,4.17,9.23,9.28,23.48,16.43,40.83,20.48,4.14,1,8.63,1.82,11.11,3.91s1.82,5.88-2.65,7.68c-3.44,1.38-8.09,1.19-12,2.16-5.07,1.27-4.92,2.74-4.22,4.25,1.89,4,5.05,7.84,7.77,11.73,3,4.23,6.41,8.65,4.25,13.43a25.89,25.89,0,0,1-3.89,6.28A293.34,293.34,0,0,0,374,431.47c-7-6.28-10.22-14.27-9-22.68.31-2.09.87-4.24.12-6.14-.61-1.6-2.13-3-2-4.7.17-2.84,4.65-5.49,8.67-7.68l14.1-7.64c8.85-4.81,18.7-10.83,18.15-16.91-.29-3.36-3.86-5.91-8-7.85-1.49-.7-3.07-1.37-3.88-2.42s-.54-2.57,1.22-3.55c2.82-1.56,6.55-.58,9.58,0a33.27,33.27,0,0,0,16-1.39,33.54,33.54,0,0,1,4.74-1.5,11.11,11.11,0,0,1,8,1.44c1.83,1.25,2.77,2.88,4.1,4.34,4.81,5.32,14.67,8.53,26,8.41h2.53q2.16-3.41,4.06-6.86Zm-65.69-82.93c5.37,2.19,10.33,4.93,12,8.81s-.86,9.13-7.43,12c-4,1.75-8.85,2.41-13,4-10.69,4.19-14.26,13.76-25.83,16.46-9,2.09-16.7-1.66-19.75-6.1s-3.52-9.79-8.14-13.6a14.18,14.18,0,0,0-9.19-3.08c-6.28.05-12.2,3.38-17.91,5.84-6.12,2.65-13.56,4.59-19.89,3.89-7.57-.83-11.32-5.08-14.36-9-.48-.64-1-1.32-.71-2.1a4.28,4.28,0,0,1,1.53-1.66c4.65-3.5,11.74-5.69,18.56-7s13.78-1.88,20.62-3.1a101.86,101.86,0,0,0,33.89-12.41c1.67-1.75,2.87-3.8,5.19-5.33,4.65-3.1,12.49-3.16,17.25-1.44s7.55,4.71,11.37,7C390.06,269.55,396,271.35,401.36,273.54ZM217.82,339.28c2.14,2.15,1.6,5.37-2.77,7.11s-10.65,1-14.43-.16c-5.43-1.66-8.5-5-9.54-8.75s-.08-7.77,1.36-11.77c2-5.59,5.06-11.62,1.71-16.24-1.51-2-4.13-3.61-7-5a69.63,69.63,0,0,0-19.47-5.47c-7.28-1-15.31-1.25-21.85-3.06-7.91-2.19-13.22-7-12-12.7s10-11.83,19.75-13c8.27-1,17,1.26,24.19-2.09,4.93-2.3,7.26-6.64,12.93-7.92a13.31,13.31,0,0,1,9.85,1.67c3.45,2.15,5.28,5.2,5.09,8.49s-2.18,6.6-3.06,9.91a19.38,19.38,0,0,0,.3,10.07c1.11,4.14,3.51,8.42,9.81,10.05,8.82,2.29,23.15-1.26,29.2,3,4.26,3,1.7,8.25-2.86,12.29s-10.88,7.49-15.17,11.61A22,22,0,0,0,217.6,338,1.8,1.8,0,0,0,217.82,339.28Zm17.34-47.39c-4.54-.2-9.42,0-13.56-.74-6.27-1.18-10.24-4.79-9.79-8.95S217,273.52,223.74,271c5.11-1.93,10.87-2.65,16.42-3.34,14.87-1.84,29.7-3.66,44.58-5.51,8.53-1.05,17.36-2.16,25.26-5.1,3.37-1.26,6.47-2.81,9.87-4,5.17-1.82,8.38-3.09,13.69-3,0,0,1.84.19,2.39.32,5.79,1.34,9,5,9,9s-4.24,8.47-10.72,10.72a54.74,54.74,0,0,1-10.36,2.14L307,274.55c-7.5,1.05-15.18,2.15-22.26,4.52s-13.59,6.3-15.43,10.68c-1.05,2.51-1.12,5.6-5.07,7.11s-8-.09-11.11-1.36A54.43,54.43,0,0,0,235.16,291.89Zm62.59-85.73c8.49-4.06,19.86-3.39,27-.47s11.21,7.62,16.57,11.59c10.54,7.73,26.28,12.8,44.28,14.27,4.88.4,9.93.55,14.57,1.26a35.5,35.5,0,0,1,11.06,3.36c3.78,2,6.43,4.78,6,8.1s-4.61,7.09-10.29,8.41c-10.45,2.43-17.82-4-28.28-3.29-7.8.51-16.32,4.9-23.09,3.56-7.21-1.41-6.15-8.3-13-10.07-4.39-1.14-10.51.31-15.34,2.33s-9,4.62-14,6.41-13.62,4.09-17.4,3.36c-2.09-.42-1.87-1.84-1.65-2.34,1.93-4.6,13.95-7.86,14.34-12.36.16-1.77-1.26-3.22-2.79-4.52-5.13-4.33-12-7.95-15.14-13S288.94,210.35,297.75,206.16Zm-99.59-16.53a20.8,20.8,0,0,1,9-2.91c4.26-.21,7.28,1.45,9.9,3q6.57,3.94,13.08,7.89a14.07,14.07,0,0,0,6.39,2.38c6.69.54,12.94-4.17,19.49-6.74a33.47,33.47,0,0,1,16.79-2,30.32,30.32,0,0,1,11.51,4.37c3.64,2.42,5,7.9,2.18,11.49s-7.45,7.12-7.87,10.74c-.23,1.92.67,3.91-1.33,5.69-3.1,2.7-9.36,2.3-14.42,3.2-5.32,1-9.85,3.69-15.05,5A29.89,29.89,0,0,1,228,230.11c-4.94-2.48-7.76-6.1-10.51-9.63s-5.61-7.16-10.6-9.6c-4.2-2-9.82-3.21-13.19-5.75C188.53,201.19,190.56,194.12,198.16,189.63Zm-36.85,42.7a15.49,15.49,0,0,1,4.52-10.63,27,27,0,0,1,15.06-7.32,24.49,24.49,0,0,1,17.22,3.72c4,2.74,6.33,6.26,9.71,9.29a41.51,41.51,0,0,0,14.73,8,45.07,45.07,0,0,0,17.8,2.29c8.24-.65,16.33-3.75,24.59-5.08,8.68-1.39,17.47-.71,23.75,1.83,5.1,2.08,8.56,5.93,5.76,10-4.15,6-16.46,9.1-25.76,13.13a21.36,21.36,0,0,1-2.17.57,101.16,101.16,0,0,1-24.14,3.47c-5.59.11-11.85-.12-16.65,2.31a34.49,34.49,0,0,1-4,2.15c-4.47,1.63-9-.5-10-3s-.29-5.56-2.38-7.73c-3-3.14-10.94-3.34-17.92-2.27-3.38.52-6.86,1.29-10.12,1.2A17.34,17.34,0,0,1,171,250.52C164.42,245.65,161,239.22,161.31,232.33Zm-90.37-3.08A57.46,57.46,0,0,1,62.8,229c-9-1.28-10.8-8.21-6.72-13.92,3.78-5.25,11.51-10,20.41-12.39s18.67-2.57,25.83-.34c4.69,1.47,8.14,3.83,11.65,6.08,3.8,2.41,9.53,4.83,15.62,2.86,3.6-1.16,6.5-3.68,10.23-3.91A9.08,9.08,0,0,1,145,208.7c4.42,2.4,7.2,5.81,7.8,9.64,1.12,6.92-4.62,14.67-3.85,21.66.58,5.35,5,9.91,11.53,13,2.42,1.17,5.21,2.18,6.89,3.75s2,4-.46,5.83c-2.72,2.06-7.5,2.59-11.37,2.5s-7.84-.54-11.8.43c-5,1.23-10.09,5.45-12.66,7.59-.6,3.31-1.27,6.72-3.94,9.95a21.56,21.56,0,0,1-13.66,6.87c-8.4.84-13.2-3.74-15.33-8.07-4.17-8.4-4.55-17.89-1.19-27.44,1.84-5.14,4.75-10.52,2.92-15.15C97.07,232.23,84,229.17,70.94,229.25ZM70.63,325c-14.29-1.37-22-8.94-28.44-16-4.37-4.8-8.78-9.84-8.66-15.81s6.19-13.14,16.37-16a37.41,37.41,0,0,1,18.84-.2A38.71,38.71,0,0,1,82,283.46c4.6,3.32,8.85,6.15,12.19,10,3.84,3,12,3.7,19.12,1.59a43.11,43.11,0,0,1,4.35-1.22c5.9-1,9.22,2.33,12.37,4.73,4.79,3.62,12.73,5.63,21.49,5.44,5.51-.13,11.48-1.07,16.43-.24s8.08,4.53,4.06,7.32c-4.68,3.25-12.85,1.74-19,3.9-2.64.93-4.77,2.51-7.57,3.16-3.87.89-7.27-.3-10.21-1.34a54.49,54.49,0,0,0-21.65-3.42c-11,.64-21.84,5-31.63,9.41a26.59,26.59,0,0,1-5.58,2A20.07,20.07,0,0,1,70.63,325Zm173.78,63.57a20.8,20.8,0,0,1-11.87,9.88,36.47,36.47,0,0,1-12.17,1.82c-17,0-28-7.45-37.52-14.45l-25.06-18.5c-7.69-5.65-16.56-11.67-30.21-11.82-10.58-.11-22.41,3.4-32.32,2.22-11.51-1.36-16.49-8.81-14.69-16.15,1.34-5.33,6.1-11.14,14.29-14.69a53.34,53.34,0,0,1,9.53-2.94c3.82-.84,8-1.44,11.3-.79,2.41.47,4.15,1.54,6.19,2.38,7.47,3.07,19.53,2.62,29-1.12,3.3-1.3,6.34-2.94,9.92-3.8,6.93-1.66,13.72.39,16.61,3.63s2.77,7.42,2.69,11.42S180,343.81,183,347c2.81,3.06,8.08,4.91,13.26,6.63,3.76,1.23,7.72,2.46,12.49,2.36,4.48-.07,9.25-1.36,13.66-1.27a19.93,19.93,0,0,1,10.88,3.44c4.17,2.83,4.66,4,6.69,7.88a8.57,8.57,0,0,0,.74,1.56,17.93,17.93,0,0,1,1.65,3.51C245,377.35,248,381.6,244.41,388.55Zm53.43-45.06c-.64,2.48-.53,4.94-1.82,7.43-2.9,5.75-13.27,10.55-23.13,11.7s-19-.84-25.38-4.23-10.33-8.12-13.64-12.95c-3-4.5-5.44-9.94-.5-15s15.47-8.12,18.95-13.3c2.53-3.7,1.34-8.27,7-10.79a16.89,16.89,0,0,1,10.59-.53c3.06.83,5.39,2.25,8.21,3.27,9.09,3.22,23.67,1.59,33.46-3.75,3.78-2.09,7.46-4.82,12.15-5.3,3.85-.4,6.95,1,8.42,2.84s2.93,4.27,4.62,6c2.31,2.47,8.52,5.73,10.65,8.32a10.31,10.31,0,0,1,1.8,5.79c-.15,2.33-2.22,5-4.4,7.24a18.42,18.42,0,0,1-6.16,4.46c-5.48,2.33-12,1.54-17.47.71s-12.16-1.43-17.43,1.08A10.58,10.58,0,0,0,297.84,343.49Zm131.76-8c-.63,2.24-4,4.2-7.15,5.89-4.43,2.41-9.55,5-14.92,5.21-6.16.27-10.38-2.68-16.51-2.54-7,.17-14.33,5.35-12.77,9.11.88,2.27,4.16,3.66,6.69,5.28a15.11,15.11,0,0,1,5.91,6.51,7.67,7.67,0,0,1-1.19,8.36c-2,2.3-5.3,4.23-8.69,6a63.26,63.26,0,0,1-16.06,6.19c-11,2.31-21.33,0-29.88-2.87a151.57,151.57,0,0,1-27.92-12.34c-4.14-2.39-8.19-5.2-8.06-9,0-1.86,1.07-3.8,1.83-5.7,1.14-3,1.55-5.94,3.38-8.87a17.1,17.1,0,0,1,10.52-7.14c8.18-1.91,14.94,1.86,23.17,1.24,5.74-.43,11.69-3.26,13.89-6.6,1.56-2.38,1.31-4.76,2-7.15a9.39,9.39,0,0,1,6.79-6.31c2.65-.75,5.48-.56,8.23-1,9.58-1.57,14.1-9.59,23.49-12a7.31,7.31,0,0,1,2.39-.28,1.94,1.94,0,0,1,1.83,2.26c-.09,4.6-2.52,10.21,2.91,12.89l.33.6c3.79,2.85,9.19,4.91,15.45,5.91,3.29.51,6.85.76,9.78,1.63S430.21,333.32,429.6,335.47Z" style="fill:#fff"></path><path d="M148.27,425.21c-11-6.31-30.12-5.83-46.65-7.48A187.27,187.27,0,0,0,121.41,427c9.65,3.85,19.66,7.29,29.94,10.31a15.08,15.08,0,0,0,2.09-4C154.28,430.05,151.79,427.22,148.27,425.21Z" style="fill:#fff"></path></g><g style="opacity:0.2"><path d="M429.79,389.77c-3.66-.62-8.51-.62-12.17,1.46a10.33,10.33,0,0,0-4.45,5.18,21.33,21.33,0,0,0-1.95,8.48c0,2.83.61,5.52.2,8.43,0,.05,0,.1,0,.14q4.34-2.59,8.42-5.35c.2-1.14.4-2.28.63-3.42a14.07,14.07,0,0,1,1.31-4.06,5.77,5.77,0,0,1,3.27-2.82,5,5,0,0,1,2.11.1c1.51.28,3.43.47,5.5.66q3.74-3.06,7.19-6.25A77.92,77.92,0,0,0,429.79,389.77Z" style="fill:#fff"></path><path d="M44.05,228.05c2.45-3.79.8-7.17-1.7-10.38A193.56,193.56,0,0,0,30.2,236.56C36.29,234.43,41.7,231.7,44.05,228.05Z" style="fill:#fff"></path><path d="M20.46,319.34c3.62-4.34,4.18-9.13,1.48-12.81-1.63-2.27-4.36-4.07-7.25-5.81a110.67,110.67,0,0,0,3.82,20.66A24.64,24.64,0,0,0,20.46,319.34Z" style="fill:#fff"></path><path d="M84.23,405.53c-1.25-6.67-1.59-13.95-8.55-18.62-5.8-3.9-15.22-5.31-23.48-7.51a187.68,187.68,0,0,0,32.43,28C84.48,406.76,84.34,406.14,84.23,405.53Z" style="fill:#fff"></path><path d="M454.22,340.58c-2.57-.42-5.11-.5-7.28,2.46-1.67,2.26-1.33,5-3.7,7-3.09,2.6-9.6,3-13.18,1.54s-5.05-4.06-6.7-6.48c-6.95-10.11-19.21-18.42-35.13-23.8-2.81-.95-5.85-1.89-7.15-3.63s-.6-4.19.21-6.39c1.35-3.82,2.71-7.64,4.06-11.49a5.15,5.15,0,0,1,1.82-2.7c1.69-1.24,4.52-1.63,6.95-1.73,9.13-.38,17.58,1.78,26.83,0,7.45-1.38,13.75-5,20.21-8a127.5,127.5,0,0,1,22.06-7.8,90.11,90.11,0,0,1,16.39-2.7,81.62,81.62,0,0,0-2.91-8.49A69.63,69.63,0,0,0,466,272.44c-4.71,2.37-9.85,5.73-15.09,5.31-3.58-.3-5.34-2.39-5.64-4.52s.39-4.42,0-6.52c-.7-3.46-4.46-6.08-8.66-8.2-12-6-28.74-9.47-36.2-17.81-1.32-1.48-2.29-3.33-.81-5.13,3.1-3.79,12.58-3.58,18.19-6.45,5.79-3,5-7.73,3.6-11.4L420,214.38c-7.78-3.36-15.56-6-23.34-8.69.05.2.11.41.18.61,1.37,3.89,6.35,6.57,9.09,10s2.13,8.93-4.5,11.61a33,33,0,0,1-6.53,1.63,47,47,0,0,1-20.18-.91,9,9,0,0,1-5.35-5.22c-1.57-4-.31-9.1.83-13.92,1-4.39,2-9.2.46-12.89a9.72,9.72,0,0,0-1.79-2.66,108.33,108.33,0,0,1-12.19-7.69l-2.79-2a7.37,7.37,0,0,1-1.61,1.22,22.91,22.91,0,0,1-6.5,2.05c-10.43,2.19-22.86,4.21-29.36.44-4.78-2.77-4.33-7.7-7.14-11.39-1.63-2.16-4.33-3.86-7.29-5.37-10.47-5.4-24.2-8.76-39.34-9.64-5.31-.29-11.43-.53-13.71-3.12-1.34-1.53-1-3.54-.55-5.45,1-5,3.05-10.26,7-14.32q-5.23-.88-10.77-1.52a10,10,0,0,0-2,2.66A22.1,22.1,0,0,1,241.1,143a6.35,6.35,0,0,1-4.14,2.41c-2.57.4-4.2-.85-6-1.61-6.66-2.9-18.44.25-26.52-1.41a32.46,32.46,0,0,1-7.16-2.67c-2.35-1.06-4.84-2-7.36-3q-6,.6-11.9,1.49a68,68,0,0,1,7.74,3.8c6,3.4,12.2,7.36,21.51,7.4,6.35,0,13.28-1.81,19.47-1.43,9.64.61,13.93,7.66,8,13.21-2.31,2.2-5.71,4-8.79,5.85-6.09,3.74-11.19,8.16-13.23,12.79s-.71,9.44,4.61,12.05c3,1.48,10.9,2.32,8.33,4.79-4.07,3.91-13.91.52-20.36-.34a52.69,52.69,0,0,0-15.62-.06c-7.16,1.14-14.71,3.25-21.43,2.31-4.86-.68-11.22-2.49-12.51-7.5-1-4.06,1.71-8.79-.12-12.62-2.43-5.06-11.92-7-20.64-8.37s-18.35-3-21.51-7.83a6.18,6.18,0,0,1-1-3.61q-4.73,2.37-9.27,4.95a14.67,14.67,0,0,0,.63,2c1.08,2.79,2.82,5.79,1.11,9.06-1.15,2.23-3.54,3.74-5.72,5-2.78,1.67-5.76,3.38-8.64,3.49-3.46.15-5.86-2.1-8.26-4-.43-.34-.89-.68-1.35-1q-4.82,3.66-9.38,7.63A32.23,32.23,0,0,1,78,190c2,1.6,4,3.32,4.33,5.5.22,1.68-.6,3.48-.67,5.2-.25,4.41,4.21,7.78,9,10.55,4.54,2.64,9.88,6,6.88,10.21a33.2,33.2,0,0,1-3.34,3.39c-3.37,3.48-3.36,7.59,0,10.15,3.9,3,11.67,3.84,14.2,7.39s-2.39,9.17-9.68,10.94-14.7,0-21.68,2.16c-6.67,2.1-10.46,7.07-17.24,8.88-6.61,1.75-12.66-.21-18.78-1a54.6,54.6,0,0,0-18.36,1.07c-1.65.37-3.29.81-4.92,1.24q-1.23,4.57-2,9.15c.71-.3,1.43-.6,2.18-.87a55.78,55.78,0,0,1,21.48-2.79,58.77,58.77,0,0,1,27.4,8c5.68,3.45,10.12,8.39,6.85,13.83-3,5-12,9.31-12.83,14.29-.74,4.18,4.63,7,10.07,9s11.72,3.74,13.81,7.36c1.76,3.05.19,6.84,1,10.15,2.54,9.71,23.89,11.67,31.4,19.86,1,1.08,1.47,2.72-.48,3.71a8.92,8.92,0,0,1-3.29.71c-5,.42-10.53,2-13.56-.89-2.9-2.68-3.1-6.4-6.21-9-5-4.23-14.12-6.5-24-6S49.07,346,41.64,350.83c-2.21,1.44-4.17,3-6.55,4.37-.34.19-.7.36-1.05.54,1.47,2.34,3,4.65,4.63,6.93a29.9,29.9,0,0,1,6-5.22,55.35,55.35,0,0,1,21.45-9c8.15-1.45,16.8-.53,20.79,2.94,2.63,2.3,3,5.42,4.27,8.22a10,10,0,0,0,8.69,6.13c6.56.73,14.4-2.78,21.28-2.54,7.24.23,10.6,4.34,13,8.06,3.39,5.16,6.74,10.32,10.13,15.48,1.52,2.36,3.08,4.75,3.1,7.45s-1.74,5.81-5.65,7.89c-5.52,2.95-12.14,1.78-18.85,2.78-2.86.44-5.58.13-8.43.28s-6.28,1.11-7.35,2.74a2.2,2.2,0,0,0,.06,2.47c1,1.68,3,3,4.1,4.56s1.24,3.83-1.17,5.46a8.88,8.88,0,0,1-1.69.84q4.53,2.2,9.14,4.18c3.2-2.2,4.92-5.07,4.36-7.5a3,3,0,0,1-.16-1.85,4.22,4.22,0,0,1,1.29-1.47c4-3.14,11.54-4.68,16.41-3.32,4.08,1.09,6,3.78,10.08,4.9,4.26,1.14,9.9.36,15.13-.46a58.17,58.17,0,0,1,10.69-1c3.45.11,6.66,1,7.68,2.85s-.38,4.16-.53,6.27c-.26,3.89,4,6.88,9.42,8.44s12.05,1.87,18.54,2.18,13.05.67,18.5,2.22a22.64,22.64,0,0,1,8.6,4.41,2.94,2.94,0,0,1,1.37,2.51,5.49,5.49,0,0,1-1.54,2.35c-1.54,1.71-3.07,3.41-4.61,5.15l-.4.42q5,.33,10.06.52c3-2.43,5.66-5,6.88-7.67,1.51-3.33.35-6.87-4.12-8.26-2.49-.75-5.7-.77-8.3-1.44s-4.59-2.43-2.92-4.19c1.08-1.15,3.33-1.86,5.38-2.36,16.44-4.09,34.59-3.48,49.52-9.8,8.52-3.63,14.7-9.05,23.27-12.66,10.05-4.26,22.94-5.4,32-2.83a29.86,29.86,0,0,1,10,5c4.31,3.21,7.45,7.27,6.68,11.88s-6.25,9.82-14.09,11.83c-6.61,1.68-13.18.85-19.6.58a113.4,113.4,0,0,0-18.75.79c-5.36.66-11,1.77-15.52,4-7.3,3.67-9.89,9.55-8.57,14.25q6-.46,11.88-1.12a7,7,0,0,1,.87-3.32c2-3.82,6.68-5.68,10.66-6.53,15-3.15,28.73.66,43.63-1.89,2.26-.39,4.58-.92,6.86-1.32q11.39-3.64,22.37-8.2a17.29,17.29,0,0,1-8.16-10.24v-1.94c.2-6.58-5.31-12.33-14.43-15.13-2.51-.78-5.3-1.32-7.45-2.39s-3.49-2.81-2.46-4.67a14.34,14.34,0,0,1,2.58-2.76c3-3,3.92-6.56,2.37-9.34-1-1.76-2.69-3.94,0-5.58a8.61,8.61,0,0,1,6.08-.72,11.76,11.76,0,0,1,4.15,2.27A23.76,23.76,0,0,0,376.7,383c10.43.32,20.77-5.42,29-10.58l13.09-8.22c3.77-2.34,8.3-4.95,13.17-5.05,2.95-.09,5.32.79,8.06,1.15a60,60,0,0,0,10.54-.07,116.63,116.63,0,0,1,15.47.25A126.57,126.57,0,0,0,474,345C467.43,343.45,461,341.66,454.22,340.58ZM310.06,202.71c6.1-4.78,16.05-7.55,25.2-8.34,12.58-1,25.37,1.86,27.7,8.57,2,5.78-4,12.67-3.82,18.85.26,8,10.59,13.13,20.28,17.61L411.14,254c12,5.53,24.78,12,24.79,21.88a9.44,9.44,0,0,1-3.11,7.09c-3.67,3.55-10.49,5.8-17,6.92-11.92,2.08-19.21.37-29.88-1.2-2.23-.32-4.86-.64-6-1-.6-.17-2.68-.43-2.68-.43-6.63-1.18-8.65-1.47-13.5-3.9-3.12-1.6-5.77-3.68-5.9-6.34s2.05-5.35,2.18-8c.17-2.78-1.95-5.09-4.05-7.28-2.95-3-6.13-6.09-11.37-7.73-5.5-1.74-12.65-1.72-19.52-1.66s-14,.09-19.58-1.57-9.08-5.64-6.24-9.69c1.47-2.08,4.3-3.86,6.52-5.78,6.41-5.53,7.19-12.56,1.92-16.92-1.43-1.19-3.28-2.21-4.08-3.61-1.11-1.95-.09-4.36,1.36-6.59A22.64,22.64,0,0,1,310.06,202.71Zm14.67,132c1.42,3.19,2.76,7-1.23,10.18-1.93,1.57-4.82,2.66-7.64,3.6A45.73,45.73,0,0,1,303.44,351a44,44,0,0,1-9.93-1c-4.45-1.24-10-4.86-14.28-6.21-3-1-7.22-1.81-10.32-2.69s-5.55-2.67-4.88-4.91c.83-2.73,5.52-4.88,9.1-7.08,9.17-5.71,12-14.21,6.43-19.51-1.74-1.64-4.18-3-5.61-4.79s-1.61-4.23.92-6.18c4.32-3.31,12.15-2.61,18.5-4.08,8.89-2,14.28-8.24,22.8-11.06,8.71-2.88,18-1.48,25.76.3,8.28,1.93,16.34,4.23,22.2,7.95s9.25,9,7.26,14.8S361.18,318.3,351.33,320c-4.27.76-8.49.69-12.75,1.06s-9,1.35-12,3.47C322.26,327.59,323.28,331.51,324.73,334.68ZM153.21,277.16a37.46,37.46,0,0,0-13.76-8.59c-5.2-2-11.23-3.34-15.93-5.66s-8.09-5.93-6.37-10c1.49-3.59,6.71-6.89,12.54-8.78a61.17,61.17,0,0,1,18.23-2.64c11.83-.16,22.85,1.81,31.21,5.62,3.22,1.47,6.19,3.36,6.38,6,.15,1.9-1.16,3.93-2.07,5.9-1.83,4.07-1.48,8.68,3.9,10.45,3.72,1.22,8.92.81,13.27,1.39s8,3.23,5.2,5.84a29.83,29.83,0,0,1-3.68,2.36c-4.17,2.8-3.79,6.45-4,9.71-.27,4.63-2.31,9.47-5.95,14.07a7.84,7.84,0,0,1-1,1.27c-6.92,5.42-12.18,12.6-22.51,15-7,1.63-13.59-.39-17.16-3.36-4.35-3.66-5.52-8.79-3.13-13.85,2.27-4.81,7.59-9.53,8.7-14.34C158,283.67,156.12,280.15,153.21,277.16Zm59.88-40.23c2-5.7,12.52-10.81,22.24-11.51s18,2.39,21.77,7c3.12,3.81,3.48,8.49,5.25,12.74a27.37,27.37,0,0,0,9.39,11.35,24.22,24.22,0,0,0,8.5,4.09c7.92,1.95,18.26.17,27.84-1a97.52,97.52,0,0,1,20.19-.79c6.38.6,12.16,2.39,15,5.56,2,2.2,3.28,5.86.28,8.41s-8.52,2.87-12.21,1.62a8.27,8.27,0,0,0-2.26-.13,74.62,74.62,0,0,0-18.18,3.64c-7.06,2.5-13,6.19-19.91,8.84s-16,4.16-21.08,1.67c-7.24-3.53-1.15-11.88-5.08-17-2.78-3.67-10.13-5.06-17.24-5.71a95.4,95.4,0,0,0-17.27-.18c-5.66.52-11.43,1.69-17,1.79s-10.87-1-14.57-3c-2.51-1.35-4.34-3.47-2.86-5.74,2.2-3.31,9.64-4.67,13.59-7.55C215.24,246.84,211.44,241.75,213.09,236.93Zm-14,76.49c3.16-8.68,6.29-17.32,9.45-26,1.18-3.23,2.42-6.59,5.73-9.57,4.33-3.91,12.07-6.69,19.21-7s13.34,2.05,15.36,5.71c1.32,2.41.92,5.26,1.27,7.91a16.36,16.36,0,0,0,6.19,10.5c2.17,1.83,4.91,4.15,2.33,6.48s-7.89,2.34-12.2,2.95a33.32,33.32,0,0,0-18.31,9c-4.06,4.13-6,8.6-7.75,13q-2,4.88-4.08,9.79a16.43,16.43,0,0,1-3.68,6c-3.85,3.78-11.66,6.23-18.38,6.25s-13.1-1.85-15.4-5.22a8.05,8.05,0,0,1-.54-1.4c-.15-3.09,2-5,5.16-8,2.07-2,4.73-3.79,6.89-5.76C195.35,323.54,197.26,318.39,199.06,313.42Zm-1.6,42.09c2.62-1.36,6.15-2.06,9.14-3,9.92-5.57,17.46-12.57,21.28-19.76,2.1-4,3.1-8,5.31-12a25.6,25.6,0,0,1,12-10.82,9.94,9.94,0,0,1,2.86-.9,9.52,9.52,0,0,1,3.6.42c6.75,1.77,14,4,15.46,8.37,1.2,3.69-2.12,8-6.67,11.6-4.23,3.33-9.93,6.78-10,10.44,0,2.32,2.34,4.14,5.28,5.36,6.54,2.7,15.7,3,23.33,4.74s14.05,6.28,10.46,11.52c-4.63,6.75-21,8.83-28.23,15.06-2.79,2.42-3.92,5.24-6.93,7.58-5,3.83-14,5.3-20.61,4.33a29.38,29.38,0,0,1-15.11-7c-3.76-3.12-6.85-6.58-11.56-9.22-4-2.22-9.11-3.85-12.06-6.62S192.15,358.22,197.46,355.51Zm27-168a8.35,8.35,0,0,1,.35-11C229.7,170.56,242,167,252.24,167s18.88,2.5,27.12,5.05c12.14,3.76,25.12,8.25,27.47,16.58a4.1,4.1,0,0,1-.24,3.34,13.51,13.51,0,0,1-3.44,3.25c-7.51,5.7-15,12-16.14,18.44-.81,4.76,2.05,9,5.87,12.63,1.77,1.71,3.82,3.69,2.29,5.95-1.11,1.63-3.83,2.87-5.42,4.41-3.7,3.58-1.11,8.34-6.68,11.07-4.79,2.34-11.18.55-12.57-2.37s.2-6.36.42-9.58c.32-5.1-3.13-9.73-9.34-12.52-4.11-1.84-9.86-3.78-8.11-7.22a16.56,16.56,0,0,1,2.1-2.53c3.62-4.12,2.43-8.91-2.73-11.15-6.67-2-11.53-4.43-17.22-7.11C231.1,193.05,226.84,190.65,224.42,187.48Zm-117,44.44c-1.28-.79-2.43-1.77-2.2-3,.4-2.18,4.72-3.86,6.71-6,3.38-3.56-.78-6.9-4.91-9.11-3.85-2-7.91-4.06-10.42-6.79-3.82-4.18-3.61-9.9.57-15.06s12.26-9.7,21.25-11.9c9.81-2.38,21.69-1.31,23.88,3.91.62,1.49.39,3.15.37,4.75-.15,7.61,5.11,15.24,17.19,16.85,7.94,1.07,17.18-.63,26-1.7a167.87,167.87,0,0,1,47.07.69c7.43,1.25,15.27,4,13.84,8.94-1,3.34-6.26,6.38-11.79,8s-11.39,1.94-17.07,2.29c-3.67,1.5-10.9,4.49-13,7.38-1.66,2.31-.88,4.62-.73,6.88s-.76,5-4.3,6.63a14.38,14.38,0,0,1-10,.27c-2.7-1-4.43-2.6-6.43-4-5.34-3.81-13.15-6.39-22.33-6.73-12-.45-25.28,2.9-37.16,2.25C117.36,236.12,111.52,234.5,107.4,231.92ZM85,313.17c-2.74-1.39-6-3.74-7.48-6.72s-.18-6.72,3.38-9.78c4.41-3.82,12.49-7.47,11.57-11.37-.36-1.57-2.26-2.68-4.08-3.72q-6.78-3.79-13.54-7.63c-2.69-1.53-5.54-3.29-5.17-5.77.29-1.86,2.43-3.75,5-5.25,7.7-4.43,19.84-5.61,26.59-2.6,4.35,2,6.35,5.24,9.86,7.69,4.18,2.91,10.38,4.58,16.46,6.18s12.27,3.25,16.52,6.13,6.16,7.3,2.94,11.56c-2.33,3-7,5.67-8.64,8.77-1.56,2.95-.87,6.61-5.49,8.41-3.06,1.17-6.47.65-9.76.78-6.23.25-12.25,3-18.42,4.59S89.18,315.29,85,313.17Zm61.56,59c-2.52-10.49-11.22-19.68-24.47-25.81-6.81-3.13-14.85-5.53-19.88-9.67S96.09,326,103,321c7.18-5.13,19.73-6.11,28.44-4.23s14.9,5.83,22.33,8.82a18.73,18.73,0,0,0,7.75,1.63c7.73-.23,13.31-7.24,21.2-8.36.86-.13,3.29-.26,4,1C188,322,184.1,327.05,181,330s-7.54,5.38-11,8.18-6,6.38-4,8.94c3,4,14.86,3.4,17.28,7.6,2.29,3.95-5.24,8.92-6.11,13.47-1.18,6.1,9.8,10.39,5.64,16.49-2.27,3.31-8.73,5.74-14.43,6a23.53,23.53,0,0,1-13.89-3.5,15.08,15.08,0,0,1-5.77-6.44C147.53,378,147.28,375,146.59,372.2Zm152.94,34.3c-9,7.22-23.91,11.61-37.75,12.91-10.78,1-22.67.75-31.7,5.37-2,1-3.75,2.22-5.89,3.09-4.08,1.67-8.92,1.84-13.27,1.74-6.59-.16-13.66-1.05-15.95-4.4-1.69-2.48-.28-5.64.4-8.6s.22-6.24-3.87-7.39-9.47.3-14.42,1.13a54.86,54.86,0,0,1-18.84,0c-5.3-1-10.12-3.44-9.2-7,.81-3.11,6-6,11.3-7.19a47.93,47.93,0,0,1,15.62-.42l1.43-.39c6.11-2.69,10.72-6.72,12.35-10.75.78-1.92.94-3.86,2.25-5.74a10.3,10.3,0,0,1,7.55-3.95c3.85-.17,5.66,2.07,6.74,4,2.62,4.76,5.3,9.63,11,13.1s15.07,5.25,24.31,3c5.78-1.43,10.66-4.21,15.95-6.4A76.87,76.87,0,0,1,284.68,383c5.51-.1,10.88.48,14.93,2.13C309.57,389.18,308.53,399.28,299.53,406.5Zm111.05-46.34c-2.1,3.42-6.26,6.5-10.61,9.36a38,38,0,0,1-10.29,5.07,37.68,37.68,0,0,1-25.49-2.75c-2.79-1.48-5.16-3.39-9.05-3.9-6.46-.91-15.35,3.34-15.63,7.44-.24,3.58,4.81,6,4.36,9.63-.39,3.13-4.81,6.11-8.94,8.7-2.9,1.82-6.27,3.8-10.1,4.17a9.71,9.71,0,0,1-8.17-2.68c-1.5-1.71-1.92-3.78-2.8-5.7-1.71-3.65-5.25-6.8-10.13-9l-1-.19c-4.6-3.16-14.23-1.75-22.11-1.7-1.66,0-3.56-.16-3.87-1.07-.15-.44.15-.94.47-1.39,4.18-5.47,17.94-8.11,20.63-13.69.78-1.61.46-3.26,1.75-4.81,1.92-2.33,6.69-3.57,10.81-3.95s8.19-.24,12.27-1.15c5.73-1.28,10.58-4.75,11.32-8.1,1.06-4.8-5.41-8.74-2.14-13.51,2-2.91,7.22-5.06,12.26-6.13s10.13-1.31,15.21-2a75,75,0,0,1,9.77-1.07c6.5-.07,11.33,2.29,15.42,4.7a101.07,101.07,0,0,1,21.17,16.28C410.52,347.72,414.55,353.75,410.58,360.16Z" style="fill:#fff"></path></g></g></g><g id="freepik--Fishes--inject-77"><g id="freepik--fishes--inject-77"><path d="M413,309.4c9.91,1.41,14.54,4.33,16.09,5.81s2.43,3.14,1.72,3.75-9.33.24-13.68-3.19-4.26-5.53-5.21-5.9-8.4-1.79-11.67-3.5c.43-1,3.71-.23,6.39-.9s2.26-2.64,3.48-2.46,1.47,2.28,1.5,3.55S412.35,309.15,413,309.4Z" style="fill:#BA68C8"></path><path d="M410,369c7.53,1.07,11.06,3.29,12.23,4.42s1.85,2.38,1.31,2.84-7.09.19-10.4-2.43-3.23-4.19-4-4.47-6.38-1.37-8.87-2.66c.34-.76,2.83-.18,4.86-.69s1.72-2,2.65-1.86,1.11,1.73,1.14,2.69A2.63,2.63,0,0,0,410,369Z" style="fill:#BA68C8"></path></g><g id="freepik--fishes--inject-77"><path d="M112.56,395.45c12.81,1.82,18.8,5.59,20.8,7.51s3.14,4.06,2.23,4.84-12.06.32-17.68-4.12-5.51-7.14-6.74-7.62-10.85-2.32-15.09-4.52c.57-1.28,4.81-.3,8.26-1.17s2.93-3.41,4.5-3.17,1.9,2.94,2,4.59S111.72,395.13,112.56,395.45Z" style="fill:#BA68C8"></path><path d="M201.15,415.5c7.36,1.05,10.8,3.21,11.95,4.32s1.81,2.33,1.28,2.78-6.93.18-10.16-2.37-3.17-4.1-3.88-4.38-6.23-1.33-8.66-2.6c.32-.74,2.76-.17,4.74-.67s1.68-2,2.59-1.82,1.09,1.69,1.12,2.63A2.5,2.5,0,0,0,201.15,415.5Z" style="fill:#BA68C8"></path><path d="M65.9,358.76c7.36,1.05,10.8,3.22,11.95,4.32s1.8,2.33,1.28,2.78S72.2,366,69,363.49s-3.17-4.1-3.88-4.38-6.23-1.33-8.67-2.6c.33-.73,2.77-.17,4.75-.67s1.68-2,2.59-1.82,1.09,1.69,1.12,2.63A2.5,2.5,0,0,0,65.9,358.76Z" style="fill:#BA68C8"></path></g><g style="opacity:0.9"><g id="freepik--fishes--inject-77"><path d="M413,309.4c9.91,1.41,14.54,4.33,16.09,5.81s2.43,3.14,1.72,3.75-9.33.24-13.68-3.19-4.26-5.53-5.21-5.9-8.4-1.79-11.67-3.5c.43-1,3.71-.23,6.39-.9s2.26-2.64,3.48-2.46,1.47,2.28,1.5,3.55S412.35,309.15,413,309.4Z" style="fill:#fff"></path><path d="M410,369c7.53,1.07,11.06,3.29,12.23,4.42s1.85,2.38,1.31,2.84-7.09.19-10.4-2.43-3.23-4.19-4-4.47-6.38-1.37-8.87-2.66c.34-.76,2.83-.18,4.86-.69s1.72-2,2.65-1.86,1.11,1.73,1.14,2.69A2.63,2.63,0,0,0,410,369Z" style="fill:#fff"></path></g><g id="freepik--fishes--inject-77"><path d="M112.56,395.45c12.81,1.82,18.8,5.59,20.8,7.51s3.14,4.06,2.23,4.84-12.06.32-17.68-4.12-5.51-7.14-6.74-7.62-10.85-2.32-15.09-4.52c.57-1.28,4.81-.3,8.26-1.17s2.93-3.41,4.5-3.17,1.9,2.94,2,4.59S111.72,395.13,112.56,395.45Z" style="fill:#fff"></path><path d="M201.15,415.5c7.36,1.05,10.8,3.21,11.95,4.32s1.81,2.33,1.28,2.78-6.93.18-10.16-2.37-3.17-4.1-3.88-4.38-6.23-1.33-8.66-2.6c.32-.74,2.76-.17,4.74-.67s1.68-2,2.59-1.82,1.09,1.69,1.12,2.63A2.5,2.5,0,0,0,201.15,415.5Z" style="fill:#fff"></path><path d="M65.9,358.76c7.36,1.05,10.8,3.22,11.95,4.32s1.8,2.33,1.28,2.78S72.2,366,69,363.49s-3.17-4.1-3.88-4.38-6.23-1.33-8.67-2.6c.33-.73,2.77-.17,4.75-.67s1.68-2,2.59-1.82,1.09,1.69,1.12,2.63A2.5,2.5,0,0,0,65.9,358.76Z" style="fill:#fff"></path></g></g></g><g id="freepik--Plants--inject-77"><g id="freepik--Algaes--inject-77"><path d="M343.26,206.21c-1.08-.93-5.35-4.9-9.68-5.33s-13.63,2.34-17.14.14c0,0,3,9.16,13,10.31S343.26,206.21,343.26,206.21Z" style="fill:#BA68C8"></path><path d="M343.26,206.21c-1.08-.93-5.35-4.9-9.68-5.33s-13.63,2.34-17.14.14c0,0,3,9.16,13,10.31S343.26,206.21,343.26,206.21Z" style="opacity:0.25"></path><path d="M316.44,201c1.53,2,6.76,4.1,11.73,4.21s12.74.19,15.09,1c-1.08-.93-5.35-4.9-9.68-5.33S320,203.22,316.44,201Z" style="opacity:0.15"></path><path d="M331.8,205.33a92.91,92.91,0,0,1,11.76,1.27,41.84,41.84,0,0,1,11.06,3.63,27.07,27.07,0,0,1,8.59,7,64.35,64.35,0,0,1,6.2,10,63.07,63.07,0,0,0,6,9.81,35.5,35.5,0,0,0,7.46,6.75c5.53,3.9,11.81,6.95,16.48,11.95a24,24,0,0,1,5.48,9.6,35.86,35.86,0,0,1,1.23,11.8c0,1.07-.1,2.13-.19,3.2-.07.83,1.34.82,1.46,0,1.19-8,.22-16.75-4.71-23.41-4.18-5.66-10.49-9-16.27-12.78a45.1,45.1,0,0,1-8.11-6.37,44.14,44.14,0,0,1-6.41-9.46,92.39,92.39,0,0,0-6.06-10.12,27.51,27.51,0,0,0-8.77-7.82c-6.9-3.84-14.72-5.11-22.53-5.2-.9,0-1.79,0-2.68.09,0,0,0,0,0,0Z" style="fill:#455a64"></path><path d="M369.27,225.18c-3.13-2.12-5.7-5.24-5.34-10.26s3.14-11,.53-13.88a14.09,14.09,0,0,1,6.14,4.86c2.32,3.13,1.41,8.27.51,11A23.62,23.62,0,0,0,369.27,225.18Z" style="fill:#BA68C8"></path><path d="M369.27,225.18c-3.13-2.12-5.7-5.24-5.34-10.26s3.14-11,.53-13.88a14.09,14.09,0,0,1,6.14,4.86c2.32,3.13,1.41,8.27.51,11A23.62,23.62,0,0,0,369.27,225.18Z" style="opacity:0.25"></path><path d="M371.11,216.92c.9-2.75,1.81-7.89-.51-11a14.09,14.09,0,0,0-6.14-4.86,8.63,8.63,0,0,1,4.5,8.83c-.49,5.12-2.18,10.68.31,15.31A23.62,23.62,0,0,1,371.11,216.92Z" style="opacity:0.15"></path><path d="M403.58,260c-2.5-5.23-7.58-6.39-16.33-5.94-6.88.36-10.87-2.89-11.66-4.21a8.1,8.1,0,0,0,2.66,8c3.95,3.32,12,2.64,16,2S401.3,258.81,403.58,260Z" style="fill:#BA68C8"></path><path d="M403.58,260c-2.5-5.23-7.58-6.39-16.33-5.94-6.88.36-10.87-2.89-11.66-4.21a8.1,8.1,0,0,0,2.66,8c3.95,3.32,12,2.64,16,2S401.3,258.81,403.58,260Z" style="opacity:0.25"></path><path d="M378.25,257.81c3.95,3.32,12,2.64,16,2s7-1,9.29.17c-4-4.71-15.62-2.2-20.88-3.57a9.65,9.65,0,0,1-7.11-6.58A8.1,8.1,0,0,0,378.25,257.81Z" style="opacity:0.15"></path></g><g id="freepik--algaes--inject-77"><path d="M146.84,382.93a13.68,13.68,0,0,1-15.68-6.26c-3.58-5.66-3.16-8.61-6-10.95a36.35,36.35,0,0,1,11.49,2.88C142,371.09,145.48,376.29,146.84,382.93Z" style="fill:#BA68C8"></path><path d="M146.84,382.93a13.68,13.68,0,0,1-15.68-6.26c-3.58-5.66-3.16-8.61-6-10.95a36.35,36.35,0,0,1,11.49,2.88C142,371.09,145.48,376.29,146.84,382.93Z" style="opacity:0.25"></path><path d="M136.78,375.92c2.27,2.72,6.69,5.38,9.81,7.07a1.83,1.83,0,0,0,.25-.06c-1.36-6.64-4.86-11.84-10.16-14.33a36.35,36.35,0,0,0-11.49-2.88C129.05,366.54,133.64,372.14,136.78,375.92Z" style="opacity:0.15"></path><path d="M240.75,406.33c-.92-3.25-3.37-6-5.78-8.27a35.61,35.61,0,0,0-7.88-5.5,52.52,52.52,0,0,0-20.6-5.47c-16-1.25-32.27,2.32-48.17-.79a48.87,48.87,0,0,1-11.56-3.76,34,34,0,0,1-9.89-6.78c-.07-.07-.14.1-.09.16a35.28,35.28,0,0,0,7.94,6.47,45.1,45.1,0,0,0,9.43,4c7.43,2.34,15.35,2.79,23.1,2.69,15.3-.19,31.61-2.49,46.1,3.76a38.53,38.53,0,0,1,9.1,5.5,34.57,34.57,0,0,1,3.77,3.59c1.31,1.49,2.49,3.1,3.76,4.62C240.22,406.84,240.89,406.83,240.75,406.33Z" style="fill:#455a64"></path><path d="M177.28,388.23c-4.21.24-7.27,1.73-12.81,4.63s-9.41.9-9.41.9,2.69,4.59,11.74,3.84S177.28,388.23,177.28,388.23Z" style="fill:#BA68C8"></path><path d="M177.28,388.23c-4.21.24-7.27,1.73-12.81,4.63s-9.41.9-9.41.9,2.69,4.59,11.74,3.84S177.28,388.23,177.28,388.23Z" style="opacity:0.15"></path><path d="M166.8,397.6c9.06-.75,10.48-9.37,10.48-9.37s-5.5,5.95-10.38,7.37a15.37,15.37,0,0,1-11.84-1.84S157.75,398.35,166.8,397.6Z" style="opacity:0.15"></path><path d="M214,389c-3.66-.61-9.12-.33-13-3.26s-4.48-10.36-6.54-11.45c4.16-.49,11.53.83,14.83,4.09S213.6,385.58,214,389Z" style="fill:#BA68C8"></path><path d="M214,389c-3.66-.61-9.12-.33-13-3.26s-4.48-10.36-6.54-11.45c4.16-.49,11.53.83,14.83,4.09S213.6,385.58,214,389Z" style="opacity:0.15"></path><path d="M194.51,374.32C198,374,211.13,381.05,214,389c-.43-3.45-1.39-7.36-4.69-10.62S198.67,373.82,194.51,374.32Z" style="opacity:0.15"></path></g><g id="freepik--algaes--inject-77"><path d="M141,218.41c.91,5.65-4.34,9.57-8.77,11.78a86,86,0,0,1-13.1,4.91C108.91,238.28,98.8,242,90,248.17a57.89,57.89,0,0,0-18.38,21.91,48.9,48.9,0,0,0-4.72,27.59C68.12,306.78,72,316,78.64,322.49a26.25,26.25,0,0,0,2.73,2.33c.51.38,1.18-.1.65-.6A47.59,47.59,0,0,1,73.32,313a44.39,44.39,0,0,1-4.61-13.23A47.41,47.41,0,0,1,72.32,272a56.69,56.69,0,0,1,18.07-22.5c8.61-6.26,18.63-10,28.7-13.2a96.91,96.91,0,0,0,13-4.82,22.42,22.42,0,0,0,6.36-4.25,10.3,10.3,0,0,0,2.76-6,7.65,7.65,0,0,0-.19-2.86c0-.06-.08,0-.07.06Z" style="fill:#455a64"></path><path d="M75.82,318.2c-2.91,1-6.45,1-11.25-1.21a11.78,11.78,0,0,1-6.64-8,10.78,10.78,0,0,0,7.19,4.08C69.14,313.69,74.4,314.88,75.82,318.2Z" style="fill:#BA68C8"></path><path d="M77,319.66c2.13-.42,5.18-3.14,5.29-7s.24-5.44.73-6.36a12.94,12.94,0,0,0-3.68,3.32A14,14,0,0,0,77,319.66Z" style="fill:#BA68C8"></path><path d="M66.87,293a9.57,9.57,0,0,1-8.94-7.59A17.08,17.08,0,0,1,58.58,275a12.82,12.82,0,0,0,3,9C63.89,286.81,66.81,289.07,66.87,293Z" style="fill:#BA68C8"></path><path d="M67.88,287.64a12,12,0,0,1,5.58-8.37A15.31,15.31,0,0,1,83,277.15c-3.11,1.14-4.26,2.89-7.16,6.56S70.73,287.23,67.88,287.64Z" style="fill:#BA68C8"></path><path d="M74.45,266.29c-1.7-2.72-3.2-4.4-1.82-9.85s2.8-7,2.42-10.61c1.77,1.78,2.67,5.06,2.26,8.72S73.83,263.19,74.45,266.29Z" style="fill:#BA68C8"></path><path d="M75.21,265c1.46-1.62,3.43-3.59,8.9-4.08s6.9-.84,8.33-2.42a5.13,5.13,0,0,1-1.53,4.09c-1.92,2.22-6.26,2.41-9.41,2.07C78.15,264.33,76.42,264.49,75.21,265Z" style="fill:#BA68C8"></path><path d="M95.08,245.63c-.23-3,1.33-8.61,3.85-10.72a16.08,16.08,0,0,1,9.24-3.32c-2.19,1.14-2.49,3.06-4,5S96.88,241.77,95.08,245.63Z" style="fill:#BA68C8"></path><path d="M97.62,244.18c2.42-.77,7.23-1.3,10.24-.4a6.33,6.33,0,0,1,4.36,6.31c-.67-1-1.35-.59-5-1.27S101.67,244.36,97.62,244.18Z" style="fill:#BA68C8"></path><path d="M122.52,234.6c.81-1.08.29-3.53,1.55-6.28s3-6,1.54-8.06a5.09,5.09,0,0,1,3.32,4.23C129.27,226.83,129,231.46,122.52,234.6Z" style="fill:#BA68C8"></path><path d="M126.27,233.32c.39.94,2.28,2.86,7.45,3a8.36,8.36,0,0,0,8.14-5.47c-.63,1.17-3.31,2.41-6.4,2.06A25.28,25.28,0,0,0,126.27,233.32Z" style="fill:#BA68C8"></path><path d="M140,224.31c.24-1.07-.59-1.82-1.22-3.58s1.67-7.2,0-10A8.74,8.74,0,0,1,143,217C143.6,220,142.69,221.66,140,224.31Z" style="fill:#BA68C8"></path><g style="opacity:0.45"><path d="M75.82,318.2c-2.91,1-6.45,1-11.25-1.21a11.78,11.78,0,0,1-6.64-8,10.78,10.78,0,0,0,7.19,4.08C69.14,313.69,74.4,314.88,75.82,318.2Z"></path><path d="M77,319.66c2.13-.42,5.18-3.14,5.29-7s.24-5.44.73-6.36a12.94,12.94,0,0,0-3.68,3.32A14,14,0,0,0,77,319.66Z"></path><path d="M66.87,293a9.57,9.57,0,0,1-8.94-7.59A17.08,17.08,0,0,1,58.58,275a12.82,12.82,0,0,0,3,9C63.89,286.81,66.81,289.07,66.87,293Z"></path><path d="M67.88,287.64a12,12,0,0,1,5.58-8.37A15.31,15.31,0,0,1,83,277.15c-3.11,1.14-4.26,2.89-7.16,6.56S70.73,287.23,67.88,287.64Z"></path><path d="M74.45,266.29c-1.7-2.72-3.2-4.4-1.82-9.85s2.8-7,2.42-10.61c1.77,1.78,2.67,5.06,2.26,8.72S73.83,263.19,74.45,266.29Z"></path><path d="M75.21,265c1.46-1.62,3.43-3.59,8.9-4.08s6.9-.84,8.33-2.42a5.13,5.13,0,0,1-1.53,4.09c-1.92,2.22-6.26,2.41-9.41,2.07C78.15,264.33,76.42,264.49,75.21,265Z"></path><path d="M95.08,245.63c-.23-3,1.33-8.61,3.85-10.72a16.08,16.08,0,0,1,9.24-3.32c-2.19,1.14-2.49,3.06-4,5S96.88,241.77,95.08,245.63Z"></path><path d="M97.62,244.18c2.42-.77,7.23-1.3,10.24-.4a6.33,6.33,0,0,1,4.36,6.31c-.67-1-1.35-.59-5-1.27S101.67,244.36,97.62,244.18Z"></path><path d="M122.52,234.6c.81-1.08.29-3.53,1.55-6.28s3-6,1.54-8.06a5.09,5.09,0,0,1,3.32,4.23C129.27,226.83,129,231.46,122.52,234.6Z"></path><path d="M126.27,233.32c.39.94,2.28,2.86,7.45,3a8.36,8.36,0,0,0,8.14-5.47c-.63,1.17-3.31,2.41-6.4,2.06A25.28,25.28,0,0,0,126.27,233.32Z"></path><path d="M140,224.31c.24-1.07-.59-1.82-1.22-3.58s1.67-7.2,0-10A8.74,8.74,0,0,1,143,217C143.6,220,142.69,221.66,140,224.31Z"></path></g></g><g id="freepik--algaes--inject-77"><path d="M185.77,196.47c7.68-2.71,11.6-10.59,17.09-16a47.89,47.89,0,0,1,21.47-12.2,54.36,54.36,0,0,1,25.14-.56,64.92,64.92,0,0,1,23.6,10.39c3.56,2.48,6.77,5.39,10.16,8.09,3.06,2.45,6.48,4.89,10.35,5.85a11.84,11.84,0,0,0,3.36.32c.63,0,.49-.83,0-1-1.06-.33-2.16-.72-3.21-1.11a27.81,27.81,0,0,1-2.9-1.29,35.64,35.64,0,0,1-5.09-3.33c-3.37-2.55-6.45-5.45-9.84-8a67.19,67.19,0,0,0-23.68-11.26,55.64,55.64,0,0,0-25.6-.44,50.82,50.82,0,0,0-22.14,11.12,64.26,64.26,0,0,0-8.15,9.28,42.57,42.57,0,0,1-7.92,8.44,15.88,15.88,0,0,1-2.64,1.55s-.06.16,0,.13Z" style="fill:#455a64"></path><path d="M280,181.29c-.24-1.79-2.44-3.55-2-5.95s.91-4.15.3-5.17C280,171.19,284.8,176.34,280,181.29Z" style="fill:#BA68C8"></path><path d="M280.76,182.85a17,17,0,0,0-11.19-.32c-4.29,1.49-5.28,3.47-5.28,3.47a10.69,10.69,0,0,1,6.58-.44C274.83,186.43,278.82,186,280.76,182.85Z" style="fill:#BA68C8"></path><path d="M258.87,169.46c1-2,.28-5.83-1.92-7.48a26.72,26.72,0,0,1-4.88-4.44c-.13,1.83,0,5.35,1.35,7.06S258.52,167.93,258.87,169.46Z" style="fill:#BA68C8"></path><path d="M257.29,168.88c-1,1.93-2.81,3.6-7,4.67s-4.74,1.51-5.63,2.18a8.26,8.26,0,0,1,4.7-6A11.27,11.27,0,0,1,257.29,168.88Z" style="fill:#BA68C8"></path><path d="M226.84,166.77c-1.8-1.27-3.32-.86-6.6-1.66s-4.84-3.23-8-3.42a11.69,11.69,0,0,1,9.38-1.12C225.56,161.76,227.14,164.58,226.84,166.77Z" style="fill:#BA68C8"></path><path d="M228,166.77a7,7,0,0,1-2,6.34c-2.1,1.9-3.69,2.37-4.15,3.76a18.91,18.91,0,0,1,.7-5.62C223.2,169.23,226.05,167.37,228,166.77Z" style="fill:#BA68C8"></path><path d="M201.45,181c-2-1.77-2.92-2.93-7.32-2.5s-6,2.18-9.44,2.5c1.56,1.05,2.67,2.05,6.56,2.05S197.34,180.39,201.45,181Z" style="fill:#BA68C8"></path><path d="M200.38,181.74c-.89,2.23-1.65,3.5-.75,7.07s1.54,5.93,1,7.6c1.95-1.92,3.17-4.41,2.35-7.34C201.71,184.67,200.24,184.82,200.38,181.74Z" style="fill:#BA68C8"></path><path d="M191.14,192.94c-.82,2.12-2.17,4.75-7.26,5a9.54,9.54,0,0,1-9.64-7.74,7.1,7.1,0,0,0,8.45,2.81C186.51,191.78,189.08,191.85,191.14,192.94Z" style="fill:#BA68C8"></path><g style="opacity:0.45"><path d="M280,181.29c-.24-1.79-2.44-3.55-2-5.95s.91-4.15.3-5.17C280,171.19,284.8,176.34,280,181.29Z"></path><path d="M280.76,182.85a17,17,0,0,0-11.19-.32c-4.29,1.49-5.28,3.47-5.28,3.47a10.69,10.69,0,0,1,6.58-.44C274.83,186.43,278.82,186,280.76,182.85Z"></path><path d="M258.87,169.46c1-2,.28-5.83-1.92-7.48a26.72,26.72,0,0,1-4.88-4.44c-.13,1.83,0,5.35,1.35,7.06S258.52,167.93,258.87,169.46Z"></path><path d="M257.29,168.88c-1,1.93-2.81,3.6-7,4.67s-4.74,1.51-5.63,2.18a8.26,8.26,0,0,1,4.7-6A11.27,11.27,0,0,1,257.29,168.88Z"></path><path d="M226.84,166.77c-1.8-1.27-3.32-.86-6.6-1.66s-4.84-3.23-8-3.42a11.69,11.69,0,0,1,9.38-1.12C225.56,161.76,227.14,164.58,226.84,166.77Z"></path><path d="M228,166.77a7,7,0,0,1-2,6.34c-2.1,1.9-3.69,2.37-4.15,3.76a18.91,18.91,0,0,1,.7-5.62C223.2,169.23,226.05,167.37,228,166.77Z"></path><path d="M201.45,181c-2-1.77-2.92-2.93-7.32-2.5s-6,2.18-9.44,2.5c1.56,1.05,2.67,2.05,6.56,2.05S197.34,180.39,201.45,181Z"></path><path d="M200.38,181.74c-.89,2.23-1.65,3.5-.75,7.07s1.54,5.93,1,7.6c1.95-1.92,3.17-4.41,2.35-7.34C201.71,184.67,200.24,184.82,200.38,181.74Z"></path><path d="M191.14,192.94c-.82,2.12-2.17,4.75-7.26,5a9.54,9.54,0,0,1-9.64-7.74,7.1,7.1,0,0,0,8.45,2.81C186.51,191.78,189.08,191.85,191.14,192.94Z"></path></g></g><g id="freepik--algaes--inject-77"><path d="M482.27,314.39c.73-10.78-2.26-23-16.34-32.77-11.05-7.7-29.75-14.18-42.25-30.94s-11.72-39.59-5.39-45.52,9.75,4.33,11.42,17.36,10.75,27.29,21.66,34.69,21.52,11.84,29.75,24.07C487.44,290.66,488,304.72,482.27,314.39Z" style="fill:#BA68C8"></path><path d="M482.27,314.39c.73-10.78-2.26-23-16.34-32.77-11.05-7.7-29.75-14.18-42.25-30.94s-11.72-39.59-5.39-45.52,9.75,4.33,11.42,17.36,10.75,27.29,21.66,34.69,21.52,11.84,29.75,24.07C487.44,290.66,488,304.72,482.27,314.39Z" style="opacity:0.2"></path><path d="M481.12,281.28c-8.23-12.23-18.83-16.68-29.75-24.07s-20-21.66-21.66-34.69c-1.31-10.25-3.71-18.78-7.75-19.07-1.19,8.07-.14,33.76,13.65,48.79,15.49,16.87,56.29,25.47,46.66,62.15C488,304.72,487.44,290.66,481.12,281.28Z" style="opacity:0.15"></path><path d="M482.27,314.39c8.69-13,10.93-33.29,0-48.18-13.09-17.81-18.19-29.23-16.89-45.52s-9.28-9.07-12,3.35,0,21.41,5.15,30.36c6.34,11,17.92,23,21.49,30.24C486,296.91,484.45,304.61,482.27,314.39Z" style="fill:#BA68C8"></path><path d="M482.27,314.39c8.69-13,10.93-33.29,0-48.18-13.09-17.81-18.19-29.23-16.89-45.52s-9.28-9.07-12,3.35,0,21.41,5.15,30.36c6.34,11,17.92,23,21.49,30.24C486,296.91,484.45,304.61,482.27,314.39Z" style="opacity:0.1"></path><path d="M464.15,251c7.82,17,30.33,26.47,18.12,63.4,8.69-13,10.93-33.29,0-48.18-13.09-17.81-18.19-29.23-16.89-45.52.49-6.06-.67-8.86-2.46-9.36h0C457.81,222.55,456.64,234.67,464.15,251Z" style="opacity:0.15"></path></g><g id="freepik--algaes--inject-77"><path d="M20.61,256.65c2.06-8,10.42-21,23.86-30.44s29.1-19.91,37.38-31.9,7.52-27.2,5.63-33.61-9.49-6.49-11.35,3.41c-1.43,7.61-6.94,21.63-18.22,33.83C45.56,211.29,14.6,221.18,20.61,256.65Z" style="fill:#BA68C8"></path><path d="M20.61,256.65c2.06-8,10.42-21,23.86-30.44s29.1-19.91,37.38-31.9,7.52-27.2,5.63-33.61-9.49-6.49-11.35,3.41c-1.43,7.61-6.94,21.63-18.22,33.83C45.56,211.29,14.6,221.18,20.61,256.65Z" style="opacity:0.2"></path><path d="M82.83,156.25c-2.68-.2-5.63,2.19-6.7,7.86-1.43,7.61-6.94,21.63-18.22,33.83-12.35,13.35-43.31,23.24-37.3,58.71a12.84,12.84,0,0,1,.12-1.46c2.69-34.92,32.92-39.68,46.67-55.37S82.35,173.86,82.83,156.25Z" style="opacity:0.15"></path><path d="M20.61,256.65c-.53-15.83,4.17-26.48,14.31-39.51S48.65,191.26,46.77,183s-8.23-7.45-11,4.25a98.09,98.09,0,0,1-12.16,29.55C17.92,226.44,14.14,237.25,20.61,256.65Z" style="fill:#BA68C8"></path><path d="M20.61,256.65c-.53-15.83,4.17-26.48,14.31-39.51S48.65,191.26,46.77,183s-8.23-7.45-11,4.25a98.09,98.09,0,0,1-12.16,29.55C17.92,226.44,14.14,237.25,20.61,256.65Z" style="opacity:0.1"></path><path d="M42.68,177.55c-2.45-.23-5.29,2.88-6.91,9.71a98.09,98.09,0,0,1-12.16,29.55c-5.69,9.63-9.47,20.44-3,39.84-3.79-21.21,3.53-29.68,12-44.8C40.44,198,43,184.31,42.68,177.55Z" style="opacity:0.15"></path></g></g><g id="freepik--Otters--inject-77"><g id="freepik--Shadow--inject-77" style="opacity:0.30000000000000004"><path d="M249.54,218c-40.29,11-54.72,42.26-22.92,65.45-40.16-18.36-94.25-10-113.36,13.23-16.18,19.69-7,42.27,28.75,58.12C178.3,370.9,201,373.46,257.52,373c44.74-.34,66-6.88,113.4-6.29-1.34-25.74-.28-38.22.3-64.05C372,270.09,362.59,246,343.56,233,315.2,213.55,283.64,208.65,249.54,218Z" style="fill:#BA68C8"></path><path d="M242.22,379.76c12.39,5.48,28.85,6,53.84.34s35.69-6.08,45.46,1.34c-9.29-2.41-20.27-2.59-41.85,4.94C284.59,391.64,259.59,395.14,242.22,379.76Z" style="fill:#BA68C8"></path><path d="M114,276.89c2,15.25-8.45,18.75-13.64,32.93-6.24,17,5.7,32.4,17,36.53,0,0-15.74-.67-23.11-14.47s-3.18-25.47,3.79-33.09S114,285.53,114,276.89Z" style="fill:#BA68C8"></path><path d="M375.39,263.08c5.89,6.31,6.91,14.56,5.63,24s-4.17,18,2.17,27.21c-1.54-11.28,3.37-17.93,4.26-26.85S385.3,268.17,375.39,263.08Z" style="fill:#BA68C8"></path></g><path id="freepik--shadow--inject-77" d="M363.9,334.25c-10.74-8.25-14-9.91-14.83-14.23-1-5.53,4.09-27.69-10.74-46.7A77.6,77.6,0,0,0,320.07,256c-8.58-5.76-20.17-11.12-36.63-15.22-2-.48-4-1-6.08-1.4-4-1.13-6.82-2.21-8.42-3.48a9,9,0,0,1-.69-.64,10.76,10.76,0,0,0,1.66-1.38,13.7,13.7,0,0,0,3.46-7.94v0c.51-3.92-.95-9.63-4.86-14.56l-.71-.85a23.49,23.49,0,0,0-1.69-1.78l-.11-.1c-3.64-3.5-6.77-10.48-13.22-13.64a33.47,33.47,0,0,0-32,2.27c-7.53,4.83-15.9,15.53-17.47,26.69a79.66,79.66,0,0,0,8.53,47.2,97.79,97.79,0,0,0,8.42,13.07c-6.72-1.26-12.45-2.43-15-3.16-4-1.12-6.82-2.21-8.42-3.48a9,9,0,0,1-.7-.64,9.85,9.85,0,0,0,1.66-1.37,13.6,13.6,0,0,0,3.46-7.95v0c.55-4.14-1.11-10.3-5.56-15.41a21.69,21.69,0,0,0-1.7-1.77l-.1-.11c-3.64-3.5-6.77-10.48-13.22-13.64a33.48,33.48,0,0,0-32,2.28c-7.54,4.82-15.9,15.52-17.47,26.68a79.65,79.65,0,0,0,8.52,47.2c8.11,15.31,34.07,34.4,60.92,43.54s54.63,12,69.33,9.78,17.62-3.7,25.5-3.06,17,5.78,30,10.48c7.19,2.61,15.25,2.6,23.22.8,4.92,8.18,11.13,14,13.76,14,6.92,0,13.86-13.32,13.86-28.19C376.27,351.68,372.3,340.69,363.9,334.25Zm-29.23,15.32c-11.51,2.83-30.1,0-33.45-4.5-1.52-2.05-2.63-7.44-4.35-13.78,9.84,1.17,18.15.33,25.62-.63s15.07-1,18.49,3.4c1.68,2.13.85,7.53.75,14.28A51.23,51.23,0,0,0,334.67,349.57Z" style="opacity:0.15"></path><g id="freepik--Otter--inject-77"><path d="M249.62,189c2.21-2.81,9.67-2.76,11.43,1.15a5.45,5.45,0,0,1-1,6.35S251.17,193.43,249.62,189Z" style="fill:#BA68C8"></path><path d="M249.62,189c2.21-2.81,9.67-2.76,11.43,1.15a5.45,5.45,0,0,1-1,6.35S251.17,193.43,249.62,189Z" style="opacity:0.45"></path><path d="M363.9,329.56c-10.74-8.25-14-9.91-14.83-14.23-1-5.53,4.09-27.69-10.74-46.7a77.6,77.6,0,0,0-18.26-17.31c-8.58-5.76-20.17-11.12-36.63-15.22-2-.48-4-1-6.08-1.4-4-1.13-6.82-2.21-8.42-3.48-.26-.22-.5-.44-.7-.64a10.4,10.4,0,0,0,1.67-1.38,13.7,13.7,0,0,0,3.46-7.94v0c.51-3.92-.95-9.63-4.86-14.56l-.71-.85a21.74,21.74,0,0,0-1.69-1.78L266,204c-3.64-3.5-6.77-10.48-13.22-13.64a33.47,33.47,0,0,0-32,2.27c-7.53,4.83-15.9,15.53-17.47,26.69a79.66,79.66,0,0,0,8.53,47.2c8.1,15.31,25.94,36.28,51.19,49.19,26.66,13.64,44.71,12.2,59.47,10.31,7.56-1,15.07-1,18.49,3.39,2.89,3.68-1.68,17,2.94,30.33,4.49,13,14.87,24,18.49,24,6.92,0,13.86-13.32,13.86-28.2C376.27,347,372.3,336,363.9,329.56Z" style="fill:#BA68C8"></path><path d="M363.9,329.56c-10.74-8.25-14-9.91-14.83-14.23-1-5.53,4.09-27.69-10.74-46.7a77.6,77.6,0,0,0-18.26-17.31c-8.58-5.76-20.17-11.12-36.63-15.22-2-.48-4-1-6.08-1.4-4-1.13-6.82-2.21-8.42-3.48-.26-.22-.5-.44-.7-.64a10.4,10.4,0,0,0,1.67-1.38,13.7,13.7,0,0,0,3.46-7.94v0c.51-3.92-.95-9.63-4.86-14.56l-.71-.85a21.74,21.74,0,0,0-1.69-1.78L266,204c-3.64-3.5-6.77-10.48-13.22-13.64a33.47,33.47,0,0,0-32,2.27c-7.53,4.83-15.9,15.53-17.47,26.69a79.66,79.66,0,0,0,8.53,47.2c8.1,15.31,25.94,36.28,51.19,49.19,26.66,13.64,44.71,12.2,59.47,10.31,7.56-1,15.07-1,18.49,3.39,2.89,3.68-1.68,17,2.94,30.33,4.49,13,14.87,24,18.49,24,6.92,0,13.86-13.32,13.86-28.2C376.27,347,372.3,336,363.9,329.56Z" style="opacity:0.30000000000000004"></path><path d="M346.7,338.47c2.88-11.67-.38-15.64-7.41-17.16s-25.86.95-32.37-6.08-18.48-20.18-27.72-24.92c-22.8-11.73-37.56-10.42-53.43-19.36s-22.69-27.39-22.86-48.11a80.12,80.12,0,0,0,8.92,43.63c8.1,15.31,25.94,36.28,51.19,49.19,26.66,13.64,44.71,12.2,59.47,10.31,7.56-1,15.07-1,18.49,3.39,2.89,3.68-1.68,17,2.94,30.33,3.64,10.54,11.16,19.79,15.8,22.9C349.05,372.74,343.82,350.14,346.7,338.47Z" style="opacity:0.15"></path><path d="M321.56,260.52c-.3-2.24-2-3.63-5.37-5.63,2.87-.29,4.12-1.82,3.88-3.57-8.58-5.76-20.17-11.12-36.63-15.22-2.67-.55-4.78-1-6.08-1.4-4-1.13-6.82-2.21-8.42-3.48-.26-.22-.5-.44-.7-.64a10.4,10.4,0,0,0,1.67-1.38,13.63,13.63,0,0,0,3.52-8c.5-4.75-1.35-10-4.92-14.55l-.71-.85a21.74,21.74,0,0,0-1.69-1.78L266,204a7.69,7.69,0,0,0-2.86,4c-.7,1.92-1.14,4-2.41,5.6a8.72,8.72,0,0,1-5.56,2.93,22.9,22.9,0,0,1-10.78-1.28c-2.63-.9-5.12-2.21-7.84-2.78a15.56,15.56,0,0,0-17.36,10,5.74,5.74,0,0,0-.18,3.83,2.62,2.62,0,0,0,3.09,1.68c-1.3,2-2.45,4.16-1.34,6.6.58,1.3,2.25,2.21,3.47,1.48a8.44,8.44,0,0,0,.69,4.68c.81,1.37,2.78,2.19,4.07,1.25-.25.17.08,2.09.13,2.4a6.25,6.25,0,0,0,.8,2.25,2.77,2.77,0,0,0,3.72.83,6.84,6.84,0,0,0,1.1,6.75,4.27,4.27,0,0,0,2.78,1.62,2.49,2.49,0,0,0,2.58-1.55,34.29,34.29,0,0,0,1,3.36,9.62,9.62,0,0,0,2.13,3.74,5.09,5.09,0,0,0,5.36,1.31c.16-.07.31-.16.47-.25a25.05,25.05,0,0,0,3.54,5.94c1.41,1.56,3.71,3.91,6,3.76a2.34,2.34,0,0,0,2.39-2.18,6.82,6.82,0,0,0,10.81,4.46,6.6,6.6,0,0,0,9.21,3.19c2.76,3.18,8.68,2.53,10.71-1.16a10.5,10.5,0,0,0,7.6,2.2,3.41,3.41,0,0,0,2.52-1.15,1.59,1.59,0,0,0-.34-2.25c2.05.89,4.29,1.74,6.43,1.11s3.71-3.75,2.05-5.35a11.87,11.87,0,0,0,5.42.33c1.77-.42,3.3-1.18,3.56-3,.25-1.63-.84-2.55-2.73-3.54C319.18,264.41,322,263.57,321.56,260.52Z" style="fill:#f0f0f0"></path><path d="M302.32,314.32c-3.1-5.36-9.25-15.21-9.25-26.68,0-7.26,4.06-16,9.24-14,4.14,1.54,2.4,6.89,2.4,6.89s2.1-3.93,4.55-2.22,1.36,7,1.36,7,1.84-3,3.81-.32.56,8.85.56,8.85c2.05-3.69,5.81-.85,5.17,4.12s2,10.28,4.71,14,8,9.33,1.81,15.37c-6,5.86-31.68,1.84-39.28-2.44C294.57,324.71,306.94,322.33,302.32,314.32Z" style="fill:#BA68C8"></path><path d="M302.32,314.32c-3.1-5.36-9.25-15.21-9.25-26.68,0-7.26,4.06-16,9.24-14,4.14,1.54,2.4,6.89,2.4,6.89s2.1-3.93,4.55-2.22,1.36,7,1.36,7,1.84-3,3.81-.32.56,8.85.56,8.85c2.05-3.69,5.81-.85,5.17,4.12s2,10.28,4.71,14,8,9.33,1.81,15.37c-6,5.86-31.68,1.84-39.28-2.44C294.57,324.71,306.94,322.33,302.32,314.32Z" style="opacity:0.45"></path><g style="opacity:0.15"><path d="M320.16,297.94c.38-2.95-.8-5.14-2.24-5.67.92.6,1.25,3.22.53,6.41a19.48,19.48,0,0,0,1.76,12c2,4.2,6.36,7.88,5.78,11.69s-6.28,8-16.95,7.73c7.61.62,14.8.05,17.64-2.71,6.22-6,.92-11.61-1.81-15.37S319.52,302.91,320.16,297.94Z"></path><path d="M303.18,287.64a32.72,32.72,0,0,1,1.53-7.13h0s1.74-5.35-2.4-6.89a4.29,4.29,0,0,0-1.19-.25c1.89.55,1.88,2.36,1.19,7.14S303.18,287.64,303.18,287.64Z"></path><path d="M313.47,290.89a20.15,20.15,0,0,0,.27,7.42,14,14,0,0,1,1.25-4.49h0s1.42-6.15-.56-8.85a3,3,0,0,0-1-.9h0C314.43,285,313.9,288.24,313.47,290.89Z"></path><path d="M309.26,278.29a2.26,2.26,0,0,0-.95-.4c.95.41,1.41,3.67,1.17,5.31s-1,4.95-.56,7.11a14.8,14.8,0,0,1,1.7-5h0S311.7,280,309.26,278.29Z"></path></g><path d="M349,311c.57-2.62-1.27-10-5-13.78s-11.16-5.31-11.59-9.13,3.91-2.63,3.91-2.63-6.27-1.13-7.63-4c-1.63-3.48,2.9-3.67,2.9-3.67a21.82,21.82,0,0,1-5.62-2.7c-2.64-2-1.79-4.73,1-5.31,0,0-5.84-3.37-2.22-6.62s11.78-.14,17,3.12c6,3.74,11.5,10,13.75,20.68C357.07,294.83,356,313,349,311Z" style="fill:#BA68C8"></path><path d="M349,311c.57-2.62-1.27-10-5-13.78s-11.16-5.31-11.59-9.13,3.91-2.63,3.91-2.63-6.27-1.13-7.63-4c-1.63-3.48,2.9-3.67,2.9-3.67a21.82,21.82,0,0,1-5.62-2.7c-2.64-2-1.79-4.73,1-5.31,0,0-5.84-3.37-2.22-6.62s11.78-.14,17,3.12c6,3.74,11.5,10,13.75,20.68C357.07,294.83,356,313,349,311Z" style="opacity:0.45"></path><g style="opacity:0.15"><path d="M326.86,269.79a17,17,0,0,1,8.05,1.15,11.9,11.9,0,0,0-4.86-3c-3.38-1.21-4.94-1.81-5.32-3a2.64,2.64,0,0,1,.51-2.26,5,5,0,0,0-.59.44C321,266.42,326.86,269.79,326.86,269.79Z"></path><path d="M351.26,307.7c-1.09-1-.1-5.24-2.72-9.39s-6.77-5.64-10-7.12-5.7-2-6.16-4a3.61,3.61,0,0,0,0,.94c.43,3.82,7.81,5.34,11.59,9.13s5.61,11.16,5,13.78c2.87.81,4.74-1.74,5.85-5.58C354.41,307,352.35,308.69,351.26,307.7Z"></path><path d="M325.89,275.1a21.82,21.82,0,0,0,5.62,2.7h0a20.89,20.89,0,0,1,5.33.49s-.81-.93-4.55-2-5-1.81-6.19-2.93-1.21-2.38-.68-3C323.91,271.46,323.8,273.5,325.89,275.1Z"></path><path d="M340.34,287a5.54,5.54,0,0,0-3.12-2.89c-2.16-.66-8.6-2-8.89-4.48a2.68,2.68,0,0,0,.28,1.85c1.15,2.44,5.78,3.62,7.2,3.94h-.05l.48.09A8,8,0,0,1,340.34,287Z"></path></g><path d="M211.27,213.34l-6.08-1.14a33.2,33.2,0,0,0-1.55,5.19C206.6,217.13,209.54,216,211.27,213.34Z" style="opacity:0.1"></path><path d="M214.88,204.6c-2.93-2.36-8.62-4.43-13.19,0s-1.08,13,7.57,9.85C211.75,213.55,215.13,210.61,214.88,204.6Z" style="fill:#BA68C8"></path><path d="M214.88,204.6c-2.93-2.36-8.62-4.43-13.19,0s-1.08,13,7.57,9.85C211.75,213.55,215.13,210.61,214.88,204.6Z" style="opacity:0.4"></path><path d="M212.27,206.38c-3.52-1.89-7.71-1.23-8.82,1.53-1,2.58,1,4.63,3.63,3.73C210.11,210.59,210.82,207.87,212.27,206.38Z" style="fill:#37474f"></path><path d="M230.31,281.17c-6.24-2.26-12.63-9.6-12.66-19.38s7.12-14.78,9.62-10.89a3.4,3.4,0,0,1,3.62-.75,3.1,3.1,0,0,1,2.09,3.3s3.94-1,3.53,3.69.13,11.5,4.65,14.48,8.17,6.28,5.07,9.55S236,283.23,230.31,281.17Z" style="fill:#BA68C8"></path><path d="M230.31,281.17c-6.24-2.26-12.63-9.6-12.66-19.38s7.12-14.78,9.62-10.89a3.4,3.4,0,0,1,3.62-.75,3.1,3.1,0,0,1,2.09,3.3s3.94-1,3.53,3.69.13,11.5,4.65,14.48,8.17,6.28,5.07,9.55S236,283.23,230.31,281.17Z" style="opacity:0.45"></path><g style="opacity:0.15"><path d="M241.16,271.62c-4.52-3-5.06-9.8-4.65-14.48.2-2.33-.67-3.25-1.59-3.59.73.44.63,4,0,5.52s-2.23,0-2.23,0-1.83,2-1.35,3.59a16.23,16.23,0,0,0,.66,2s-.86-.13-1.06,1.7,2.64,3.78,2.64,3.78-1.52,1.66.36,4.12,6.12,2.36,8.29,2.21,5.18,1,4.63,3.86C248.7,277.36,245.31,274.36,241.16,271.62Z"></path><path d="M233,253.45h0a3.2,3.2,0,0,0-1.64-3.1,4.22,4.22,0,0,1-.31,3.1,11.06,11.06,0,0,0-.86,3.69S231.23,254.45,233,253.45Z"></path><path d="M227.27,250.9h0a2.7,2.7,0,0,0-2-1.29,1.77,1.77,0,0,1,0,1.94,9.25,9.25,0,0,0-1,4.06A12.23,12.23,0,0,1,227.27,250.9Z"></path></g><path d="M244.25,260.24c-4.28-3.88-7.38-4.2-10.24-2.55a3.39,3.39,0,0,0-1,5.44,2.3,2.3,0,0,0-1.43,3.16,5.57,5.57,0,0,0,3.66,3,2.26,2.26,0,0,0-.11,3.76c2.25,2.14,6.71,2.9,10.29,1.22S248.52,264.12,244.25,260.24Z" style="fill:#37474f"></path><path d="M237.6,267.55c-1.62-.14-2.83-.32-4-.48a2.92,2.92,0,0,1-2.3-1.91h0a2.81,2.81,0,0,0,.22,1.13,5.57,5.57,0,0,0,3.66,3h0a8.83,8.83,0,0,1,5.06-.35S240.17,267.77,237.6,267.55Z" style="fill:#263238"></path><path d="M238.11,263.36s-.51-1.36-2.85-1.76-2.85-2.16-2.28-3.1a3.28,3.28,0,0,0,0,4.63C235.26,262.45,237.37,262.57,238.11,263.36Z" style="fill:#263238"></path><path d="M307.66,246.08c-.06-.27-.29-1.11-.56-1.94a130.75,130.75,0,0,0-19.26-6.89,16.82,16.82,0,0,1,1.43,6.69c.51,5.14-2.29,12.39-4.56,15.76a3,3,0,0,0,3,4.86,3,3,0,0,0,1.87,3.94,4.62,4.62,0,0,0,4.82-.77s4.07,2.69,8.69-1.87S309.35,253.58,307.66,246.08Z" style="opacity:0.15"></path><path d="M302.32,264.39c-4.63,4.56-8.05,1.9-8.05,1.9a4.65,4.65,0,0,1-4.83.77,3,3,0,0,1-1.86-3.95,3,3,0,0,1-3-4.85c2.27-3.37,4.35-9,3.83-14.16s-2.42-7.24-2.53-7.36l0,0h0c-.8-.21-1.61-.42-2.44-.62-2.67-.55-4.78-1-6.08-1.4-4-1.13-6.82-2.21-8.42-3.48-.26-.22-.5-.44-.7-.64,6.34-1.65,19.75-2.66,26,0,5.87,2.49,9.67,6.33,11.52,13,.11.45.23.91.34,1.39C307.81,252.44,306.94,259.82,302.32,264.39Z" style="fill:#BA68C8"></path><path d="M302.32,264.39c-4.63,4.56-8.05,1.9-8.05,1.9a4.65,4.65,0,0,1-4.83.77,3,3,0,0,1-1.86-3.95,3,3,0,0,1-3-4.85c2.27-3.37,4.35-9,3.83-14.16s-2.42-7.24-2.53-7.36l0,0h0c-.8-.21-1.61-.42-2.44-.62-2.67-.55-4.78-1-6.08-1.4-4-1.13-6.82-2.21-8.42-3.48-.26-.22-.5-.44-.7-.64,6.34-1.65,19.75-2.66,26,0,5.87,2.49,9.67,6.33,11.52,13,.11.45.23.91.34,1.39C307.81,252.44,306.94,259.82,302.32,264.39Z" style="opacity:0.45"></path><g style="opacity:0.15"><path d="M286.42,261.66c-1.22.21-2.34-.13-2.52-.79a3.12,3.12,0,0,0,3.68,2.24,33.58,33.58,0,0,0,3.52-5.72C289.82,259.07,287.79,261.43,286.42,261.66Z"></path><path d="M298.28,260a14.36,14.36,0,0,1-4.37,4.67c-3,2-5.38,1.75-6.23,1a3.07,3.07,0,0,0,1.76,1.44,4.65,4.65,0,0,0,4.83-.77C296.46,264.58,298.28,260,298.28,260Z"></path><path d="M295.89,267c1.44.3,3.72.11,6.43-2.56,4.62-4.57,5.49-11.95,3.81-19.45-.11-.48-.23-.94-.34-1.39C306.78,249,307.18,263.35,295.89,267Z"></path></g><g id="freepik--Face--inject-77"><path d="M248.09,220.09a.79.79,0,0,1-.79.78.78.78,0,0,1-.78-.78.79.79,0,0,1,.78-.79A.8.8,0,0,1,248.09,220.09Z" style="fill:#455a64"></path><circle cx="263.68" cy="222.77" r="0.78" style="fill:#455a64"></circle><path d="M267.32,211a.79.79,0,1,1-.78-.79A.78.78,0,0,1,267.32,211Z" style="fill:#455a64"></path><path d="M249.66,229.71a.79.79,0,0,1-.79.78.78.78,0,0,1-.78-.78.79.79,0,0,1,.78-.79A.8.8,0,0,1,249.66,229.71Z" style="fill:#455a64"></path><circle cx="238.61" cy="223.25" r="0.78" style="fill:#455a64"></circle><path d="M241,228.25a.79.79,0,1,1-.79-.78A.79.79,0,0,1,241,228.25Z" style="fill:#455a64"></path><path d="M253.4,224.85a.79.79,0,1,1-.78-.79A.78.78,0,0,1,253.4,224.85Z" style="fill:#455a64"></path><circle cx="268.7" cy="224.34" r="0.78" style="fill:#455a64"></circle><path d="M237.47,245.19a.57.57,0,0,1-.57-.52c-1-10.56,4.61-16.31,10.22-18.17a.57.57,0,1,1,.36,1.08c-5.2,1.72-10.4,7.09-9.44,17a.57.57,0,0,1-.51.63Z" style="fill:#455a64"></path><path d="M229.77,239.63h-.07a.57.57,0,0,1-.49-.64c1.65-13.37,12.2-15.5,16.13-15.19a.58.58,0,0,1,.52.62.56.56,0,0,1-.61.52c-3.63-.28-13.37,1.71-14.92,14.19A.56.56,0,0,1,229.77,239.63Z" style="fill:#455a64"></path><path d="M225.61,226.87a.55.55,0,0,1-.3-.09.57.57,0,0,1-.17-.79c4.73-7.35,15.34-7.34,19.53-4.89a.57.57,0,1,1-.57,1c-3.77-2.2-13.71-2.14-18,4.53A.56.56,0,0,1,225.61,226.87Z" style="fill:#455a64"></path><path d="M265.94,215.79a.59.59,0,0,1-.31-.09.57.57,0,0,1-.17-.78c2.47-3.9,11.09-8.39,19.46-3.45a.57.57,0,1,1-.58,1c-7.74-4.57-15.66-.49-17.92,3.08A.58.58,0,0,1,265.94,215.79Z" style="fill:#455a64"></path><path d="M265.31,219.27a.58.58,0,0,1-.4-.17.57.57,0,0,1,0-.81c4-3.93,13-6.46,19.28-1a.57.57,0,0,1-.75.86c-5.77-5-14-2.66-17.74,1A.55.55,0,0,1,265.31,219.27Z" style="fill:#455a64"></path><path d="M283.3,226.83a.59.59,0,0,1-.54-.39,8.88,8.88,0,0,0-5.13-5.48,12.56,12.56,0,0,0-9.34,0,.57.57,0,0,1-.75-.27.56.56,0,0,1,.27-.76,13.58,13.58,0,0,1,10.26-.07,10.14,10.14,0,0,1,5.77,6.16.57.57,0,0,1-.35.72A.65.65,0,0,1,283.3,226.83Z" style="fill:#455a64"></path><path d="M262.94,214.93c-.28-1.32-4.22-3.32-6-2.93s-4.31,4.21-4.82,5.78,1.76,1.86,1.76,1.86c.2.18,1.18-.25,1.46-1.39.33-1.33,1.55-.51,1.17.29s-.9.94-2.07,1.53c-.77.84,1.45,1,3.92,3.41,3-2.29,3.92-4.47,3.43-4.95-1.19-.08-1.7-.1-2-1.13-.2-.8.83-1.44,1.09-.23a1.16,1.16,0,0,0,1.16,1A3.67,3.67,0,0,0,262.94,214.93Z" style="fill:#37474f"></path><path d="M240.94,211c-2.68-1.75-5.8.11-5.26,1.63s3.08.11,4.75,1.38S243.87,212.88,240.94,211Z" style="fill:#37474f"></path><path d="M261.85,205.33c1.24-2.49,4.4-2.45,4.66-1.08s-2.27,1.43-3,3.11S260.49,208.05,261.85,205.33Z" style="fill:#37474f"></path><path d="M272.31,233a8.2,8.2,0,0,1-5.2,2.74s-3.27,6.86-14,7.77-17.71-2.72-20.16-5c-1.12,0-6.06-3.07-5.19-7.9.43,3,2.66,5.27,5.79,6.53a2.36,2.36,0,0,0,.42.33,1.1,1.1,0,0,0,.21.14,14.83,14.83,0,0,0,4.47,1.79h.06a27.09,27.09,0,0,0,2.85.57,37,37,0,0,0,7,.37,29.12,29.12,0,0,0,4.46-.49c4.76-.9,7.59-2.31,9.25-3.73.23-.19.42-.39.61-.56a5.19,5.19,0,0,0,1.68-3.66v0a6.41,6.41,0,0,0,3.66-1.35c.2.2.44.42.7.64A13.47,13.47,0,0,0,272.31,233Z" style="opacity:0.15"></path><path d="M264.58,231.93a5.18,5.18,0,0,1-1.68,3.71c-.19.17-.38.37-.61.56-1.66,1.42-4.49,2.83-9.25,3.73a29.12,29.12,0,0,1-4.46.49,37,37,0,0,1-7-.37,27.09,27.09,0,0,1-2.85-.57h-.06a12.31,12.31,0,0,1-5-2.23,19.06,19.06,0,0,0,15.43-1.07c10-5.28,9.33-12.86,9.33-12.86C259.72,227,263.14,228.27,264.58,231.93Z" style="opacity:0.07"></path></g></g><g id="freepik--otter--inject-77"><path d="M177.51,230.71c3.31-2.54,10.58-1.43,12.38,2.47,2.08,4.5-1.26,5.88-1.26,5.88Z" style="fill:#37474f"></path><path d="M365.23,346.35a54.75,54.75,0,0,0-30.56-1.47c-11.51,2.83-30.1,0-33.45-4.5s-4.71-25.22-15-36.73A56.57,56.57,0,0,0,252.42,285c-3.83-.52-10-1.51-16.71-2.65-12.18-2.09-26.05-4.68-30.46-5.93-4-1.12-6.82-2.21-8.42-3.48a9,9,0,0,1-.7-.64,9.85,9.85,0,0,0,1.66-1.37,13.6,13.6,0,0,0,3.46-7.95v0c.55-4.14-1.11-10.3-5.56-15.41a21.69,21.69,0,0,0-1.7-1.77l-.1-.11c-3.64-3.5-6.77-10.48-13.22-13.64a33.48,33.48,0,0,0-32,2.28c-7.54,4.82-15.9,15.52-17.47,26.68a79.65,79.65,0,0,0,8.52,47.2c8.11,15.31,34.07,34.4,60.92,43.54s54.63,12,69.33,9.78,17.62-3.7,25.5-3.06,17,5.78,30,10.48,28.65.95,41.6-6.52S373.29,349.12,365.23,346.35Z" style="fill:#455a64"></path><path d="M371.22,359.45s-14.32,7.74-31.54,8-26-8-31.19-12.23S292.14,345,276,349s-38.66,6.22-57.26,1.46c-35.57-9.1-48-19.38-60.9-32.81l-6.42,5c12.11,11.42,30.43,22.67,49.2,29.06,26.83,9.14,54.63,12,69.33,9.78s17.62-3.7,25.5-3.06,17,5.78,30,10.48,28.65.95,41.6-6.52A26.56,26.56,0,0,0,371.22,359.45Z" style="opacity:0.15"></path><path d="M138.14,255.61a5,5,0,0,1-2.68,2.67,7,7,0,0,1-4,.83L132,257Z" style="fill:#37474f"></path><path d="M138.14,255.61c-7.8,4.88-13.47-3.07-9.72-8.23s9.49-5.11,13.85-3C142.27,244.42,143.81,248.92,138.14,255.61Z" style="fill:#455a64"></path><path d="M139.72,247.14c-3.79-1.26-7.81.1-8.43,3-.59,2.73,1.77,4.4,4.21,3.06C138.31,251.66,138.55,248.85,139.72,247.14Z" style="fill:#37474f"></path><path d="M249.3,298.79c-.56-3.19-3.83-5.35-6.94-6.28,2.06.08,3.18-2.71,2.33-4.58s-2.85-2.9-4.71-3.75c-1.41-.65-2.84-1.28-4.27-1.87-12.18-2.09-26.05-4.68-30.46-5.93-4-1.12-6.82-2.21-8.42-3.48a9,9,0,0,1-.7-.64,9.85,9.85,0,0,0,1.66-1.37c1.79-1.82,3.08-4,3.57-8.13.58-4.87-1.51-10.5-5.67-15.25a23.52,23.52,0,0,0-1.7-1.77l-.1-.11a7.75,7.75,0,0,0-2.87,4c-.69,1.92-1.13,4-2.4,5.6a8.75,8.75,0,0,1-5.56,2.94,23,23,0,0,1-10.78-1.29c-2.63-.9-5.12-2.21-7.84-2.78a15.54,15.54,0,0,0-17.36,10,5.81,5.81,0,0,0-.19,3.83,2.63,2.63,0,0,0,3.1,1.68c-1.3,2-2.45,4.17-1.34,6.6.58,1.3,2.25,2.21,3.47,1.48a8.34,8.34,0,0,0,.69,4.68c.81,1.38,2.78,2.2,4.06,1.25A11.93,11.93,0,0,0,157,286a6.19,6.19,0,0,0,.8,2.25,2.79,2.79,0,0,0,3.72.84,6.83,6.83,0,0,0,1.1,6.74,4.23,4.23,0,0,0,2.78,1.62,2.49,2.49,0,0,0,2.58-1.55c-.24,1.06.65,2.37,1,3.36A9.36,9.36,0,0,0,171.1,303a5.09,5.09,0,0,0,5.36,1.31,4.09,4.09,0,0,0,.46-.25c-.63.4,3.12,5.49,3.54,5.94,1.41,1.56,3.71,3.92,6,3.77a2.45,2.45,0,0,0,2.39-2.19,6.82,6.82,0,0,0,10.81,4.46,6.58,6.58,0,0,0,9.21,3.19c2.76,3.19,8.68,2.54,10.7-1.16a10.58,10.58,0,0,0,7.6,2.21,3.5,3.5,0,0,0,2.53-1.15,1.61,1.61,0,0,0-.34-2.26c2.05.89,4.29,1.75,6.43,1.11s3.71-3.75,2.05-5.35a12.59,12.59,0,0,0,6.18-.4c2.47-.87,4-2.11,4.21-3.92.25-1.63-1.37-4.07-3.1-4.69C248.6,303.65,249.84,301.82,249.3,298.79Z" style="fill:#ebebeb"></path><path d="M243.39,361.28c6.31,1.53,22.54,6.35,35.17,1.08s12.29-13.31,8.7-19.36-5.72-11-6.45-14.41-3.6-5.32-4.8-2.77c0,0,.22-6.34-2.26-8s-3.79,1.81-3.79,1.81.52-9.11-3.56-9-4.4,4.49-4.4,4.49,1.21-8.65-4.92-6.72c-6.55,2.07-6.92,12.59-4.67,18.71s3.68,8.17,8.3,14.64,4.63,9.14.32,13.12C255.76,359.76,243.39,361.28,243.39,361.28Z" style="fill:#37474f"></path><path d="M287.26,343c-3.58-6.05-5.72-11-6.45-14.41a5.29,5.29,0,0,0-2.61-3.8c1,.73.7,3.34,2.25,8.85,1.07,3.82,4.59,11,5.34,13.76s-1.7,16.18-25.94,17.09c6.11.58,12.8.34,18.71-2.13C291.19,357.1,290.85,349.05,287.26,343Z" style="fill:#263238"></path><path d="M272.34,317.43c2.05.52,2.24,3.17,2.24,7.24a16.55,16.55,0,0,0,1,5.18,16.1,16.1,0,0,1,.43-4h0s.22-6.34-2.26-8A2.25,2.25,0,0,0,272.34,317.43Z" style="fill:#263238"></path><path d="M258.11,308.18c2,.49,1.75,4.92,1.82,7.61a17.16,17.16,0,0,0,1.64,6.54,30.56,30.56,0,0,1,.43-7.2l.06-.39c0,.09,0,.17,0,.23C262.14,313.92,262.66,307.55,258.11,308.18Z" style="fill:#263238"></path><path d="M265.61,310.72c3.27.55,2.91,4.3,2.89,9.29a9.23,9.23,0,0,0,.86,4.07,13.31,13.31,0,0,1,.6-4.42h0s.51-9.11-3.56-9A4,4,0,0,0,265.61,310.72Z" style="fill:#263238"></path><path d="M302.32,337.83c-2.61,1.68-5.54.12-7.86-5.5s-4.36-7.33-7.63-9.39c-4-2.53-3.73-5.18-.92-5.31,0,0-6.31-1.41-7.29-3.5-1.17-2.47,2.38-2.55,4.2-2.47,0,0-7.92-1.11-9.59-3.22s.74-3.21,2.68-3.46c0,0-10.57-2.09-4.85-6.11,5.11-3.59,16.76-.95,22.84,5.26s11.4,15.66,11.53,22.67S304.46,336.45,302.32,337.83Z" style="fill:#37474f"></path><path d="M285.91,316c-3.72-1.17-6.86-1.08-7.51-2.88h0a1.9,1.9,0,0,0,.22,1c1,2.09,7.29,3.5,7.29,3.5h0a5.81,5.81,0,0,1,3.54.8S289.62,317.19,285.91,316Z" style="fill:#263238"></path><path d="M282,305.45s-1.85-1.63-6.1-2.19-6.2-2.08-6.06-3.3c-2.61,3.3,6.06,5,6.06,5h0A40,40,0,0,1,282,305.45Z" style="fill:#263238"></path><path d="M282.88,311.66a21,21,0,0,1,4.52.6c-2.92-1.78-5.95-2.15-9.17-2.76s-5.52-1.48-5.39-3a1.69,1.69,0,0,0,.39,2c1.67,2.11,9.59,3.22,9.59,3.22Z" style="fill:#263238"></path><path d="M298.43,335.3c-1.83-1.57-2.27-5-3.81-7.77s-4.2-4.25-6.61-5.36-4.07-2.24-4.18-3.19c-.18,1,.71,2.51,3,4,3.27,2.06,5.31,3.78,7.63,9.39s5.25,7.18,7.86,5.5c1.27-.82,2.16-2.09,2.66-4.43A4.2,4.2,0,0,1,298.43,335.3Z" style="fill:#263238"></path><path d="M231.48,281.57c-11-1.92-22.32-4.08-26.23-5.19s-6.82-2.21-8.42-3.48a9,9,0,0,1-.7-.64,9.85,9.85,0,0,0,1.66-1.37,13,13,0,0,0,1.57-1.93A37.11,37.11,0,0,0,218,265.65c1.43,7.83,6.92,13.57,12.31,15.52C230.69,281.31,231.08,281.45,231.48,281.57Z" style="fill:#37474f"></path><path d="M139.71,308.15c4,7.54,12.32,16,22.94,23.73a28.15,28.15,0,0,0,8.44-6.41c4.61-5.07,12.1-12.5,18.46-13.06s5.86-4.91,4-5.5c0,0,3.23-3.35-2.37-4.63,0,0,2.89-3.73-6.24-3.5s-20.08,5.78-27.22,7-13.57-3.19-13.57-8.53l-11.28-16.49a41,41,0,0,1-.76,5.71A79.62,79.62,0,0,0,139.71,308.15Z" style="opacity:0.15"></path><path d="M131,279.46c-.47,9-5,17.23-2.88,30.36S136.29,332,146.77,333a26.11,26.11,0,0,0,22.48-8.83c4.61-5.07,12.1-12.5,18.46-13.06s5.86-4.91,4-5.5c0,0,3.23-3.36-2.37-4.63,0,0,2.89-3.73-6.24-3.5s-20.09,5.78-27.22,7-10.69-6.17-10.69-11.51S131.45,270.44,131,279.46Z" style="fill:#455a64"></path><path d="M189.73,299.82c-.25.21-.72.29-1.57.14a13.26,13.26,0,0,0-6.37.79,29.49,29.49,0,0,1,7.51.23A2.31,2.31,0,0,0,189.73,299.82Z" style="fill:#37474f"></path><path d="M192.51,303s0,1.13-1.62,1.35-3.69.16-6.08,1.68a14.39,14.39,0,0,1,6.86-.42S192.94,304.3,192.51,303Z" style="fill:#37474f"></path><path d="M192.9,307.24c.14,1.67-4.53,1.05-10.77,2.37s-13.17,8.83-18,13.43c-5.52,5.3-15.18,5.95-17.93,4.63,0,0,4.06.24,3.05-2.43-.7-1.82-4.81-3.11-4.81-3.11s2.73-.36,1.8-1.83c-1.12-1.75-4.1-2.36-6.54-3.82A20,20,0,0,1,130.78,306c-1.41-4.21-.55-11.38,0-16a65.45,65.45,0,0,0,.18-10.19h0c-.57,8.86-4.95,17.05-2.85,30,2.13,13.12,8.19,22.17,18.67,23.18a26.11,26.11,0,0,0,22.48-8.83c4.61-5.07,12.1-12.5,18.46-13.06C191.89,310.73,193.1,308.73,192.9,307.24Z" style="fill:#37474f"></path><path d="M183.06,297.48c-9.13.23-20.09,5.78-27.22,7s-10.69-6.17-10.69-11.51c1.27,5.82,4.23,9.16,10.06,9.16S171.45,296.53,183.06,297.48Z" style="opacity:0.15"></path><g id="freepik--face--inject-77"><path d="M190.83,256.61c-.28-1.32-4.22-3.32-6-2.93s-4.31,4.21-4.82,5.77,1.76,1.86,1.76,1.86c.19.18,1.18-.24,1.46-1.39.33-1.32,1.55-.5,1.17.3s-.9.94-2.07,1.53c-.77.84,1.45,1,3.92,3.41,3-2.3,3.92-4.47,3.43-5-1.19-.08-1.7-.1-2-1.13-.2-.8.82-1.44,1.09-.23a1.14,1.14,0,0,0,1.15,1A3.64,3.64,0,0,0,190.83,256.61Z" style="fill:#37474f"></path><path d="M168.89,252.75c-2.76-1.61-5.79.41-5.17,1.9s3.09-.05,4.82,1.13S171.91,254.52,168.89,252.75Z" style="fill:#263238"></path><path d="M190.14,247c1.51-2.33,4.65-1.94,4.75-.54s-2.42,1.16-3.3,2.75S188.47,249.52,190.14,247Z" style="fill:#263238"></path><path d="M176.17,262a.79.79,0,1,1-.79-.78A.79.79,0,0,1,176.17,262Z" style="fill:#455a64"></path><path d="M192.55,264.69a.79.79,0,0,1-1.57,0,.79.79,0,1,1,1.57,0Z" style="fill:#455a64"></path><path d="M195.4,252.94a.78.78,0,0,1-.78.79.79.79,0,1,1,0-1.57A.78.78,0,0,1,195.4,252.94Z" style="fill:#455a64"></path><circle cx="176.95" cy="271.62" r="0.78" style="fill:#455a64"></circle><path d="M167.48,265.16a.79.79,0,1,1-.78-.78A.78.78,0,0,1,167.48,265.16Z" style="fill:#455a64"></path><circle cx="168.27" cy="270.17" r="0.78" style="fill:#455a64"></circle><path d="M181.48,266.76a.78.78,0,0,1-.78.79.79.79,0,1,1,0-1.57A.78.78,0,0,1,181.48,266.76Z" style="fill:#455a64"></path><path d="M197.57,266.26a.79.79,0,1,1-.79-.79A.79.79,0,0,1,197.57,266.26Z" style="fill:#455a64"></path><path d="M165.55,287.1a.56.56,0,0,1-.56-.51c-1-10.56,4.6-16.31,10.21-18.17a.57.57,0,0,1,.36,1.08c-5.19,1.72-10.4,7.08-9.44,17a.57.57,0,0,1-.51.62Z" style="fill:#455a64"></path><path d="M157.85,281.55h-.07a.56.56,0,0,1-.49-.63c1.65-13.37,12.2-15.5,16.13-15.19a.56.56,0,0,1,.52.61.56.56,0,0,1-.61.52c-3.62-.28-13.37,1.71-14.91,14.2A.57.57,0,0,1,157.85,281.55Z" style="fill:#455a64"></path><path d="M152.53,273.27a.39.39,0,0,1-.15,0,.58.58,0,0,1-.4-.7,14,14,0,0,1,8.35-8.94c4.34-1.87,9.48-2.08,12.49-.5a.57.57,0,1,1-.53,1c-2.68-1.41-7.52-1.18-11.51.54a12.87,12.87,0,0,0-7.7,8.2A.57.57,0,0,1,152.53,273.27Z" style="fill:#455a64"></path><path d="M194,257.71a.59.59,0,0,1-.31-.09.58.58,0,0,1-.17-.79c1.48-2.34,5.31-4.1,9.1-4.19a9.39,9.39,0,0,1,8.26,3.78.57.57,0,1,1-.93.65,8.43,8.43,0,0,0-7.3-3.29c-3.39.08-6.9,1.65-8.17,3.66A.57.57,0,0,1,194,257.71Z" style="fill:#455a64"></path><path d="M209.87,262.57a.55.55,0,0,1-.49-.28A8.93,8.93,0,0,0,202,258.2c-3.31-.18-6.79,1-8.11,2.76a.57.57,0,0,1-.8.11.56.56,0,0,1-.11-.79c1.55-2.07,5.36-3.42,9.08-3.22a9.89,9.89,0,0,1,8.34,4.66.56.56,0,0,1-.2.77A.51.51,0,0,1,209.87,262.57Z" style="fill:#455a64"></path><path d="M208.53,270.74a.58.58,0,0,1-.56-.43c-.81-3.29-2.38-5.59-4.64-6.84a8.89,8.89,0,0,0-7-.52.57.57,0,0,1-.72-.37.57.57,0,0,1,.37-.71,10,10,0,0,1,7.92.6c2.52,1.4,4.31,4,5.2,7.56a.57.57,0,0,1-.42.69Z" style="fill:#455a64"></path><path d="M192.47,273.62c.08,1.57-1.09,6-11.54,8-8,1.51-17.11-.47-19.42-2.7A19.09,19.09,0,0,0,177,277.85c10-5.28,9.33-12.86,9.33-12.86C187.61,268.7,191,270,192.47,273.62Z" style="opacity:0.07"></path><path d="M196.13,272.26a6.45,6.45,0,0,1-3.66,1.36c.08,1.57-1.09,6-11.54,8-8,1.51-17.11-.47-19.42-2.7h0c-3.13-1.26-5.39-3.52-5.82-6.55-.87,4.83,4.08,7.89,5.19,7.9,2.44,2.25,9.46,5.89,20.16,5s14-7.77,14-7.77a8.2,8.2,0,0,0,5.2-2.75h0a13.91,13.91,0,0,1-3.36-1.82A9,9,0,0,1,196.13,272.26Z" style="opacity:0.15"></path></g></g></g><g id="freepik--Clouds--inject-77"><g id="freepik--clouds--inject-77"><path d="M155.12,76.07l-5.89,3.4a6.81,6.81,0,0,0,.05-.78V77c0-3-2.13-4.27-4.76-2.75A9.29,9.29,0,0,0,141.68,77c-.43-3.82-3.42-5.24-7.06-3.14a15.71,15.71,0,0,0-7.12,12.33v2.56a6.65,6.65,0,0,0,.6,3l-4.89,2.83a5.84,5.84,0,0,0-2.65,4.57c0,1.69,1.19,2.37,2.65,1.53l31.91-18.43a5.84,5.84,0,0,0,2.65-4.57C157.77,75.91,156.58,75.23,155.12,76.07Z" style="fill:#ebebeb"></path><path d="M102.29,69.6,98,71.24V61.85c0-7.43-5.93-9.22-12.37-5.5h0C79.22,60.07,74,69.12,74,76.55v1.37c-1.46-.59-3.35-.36-5.41.83h0c-4.64,2.68-8.39,9.19-8.39,14.54v.62l-5.94,3.43a12.22,12.22,0,0,0-5.53,9.57c0,3.53,2.48,5,5.53,3.19l48-27.74a12.21,12.21,0,0,0,5.53-9.57C107.82,69.27,105.34,67.84,102.29,69.6Z" style="fill:#ebebeb"></path></g></g><g id="freepik--Sun--inject-77"><circle id="freepik--sun--inject-77" cx="395.79" cy="87.11" r="20.25" transform="translate(-3.21 158.09) rotate(-22.5)" style="fill:#ffbda7"></circle></g></svg>